<?xml version="1.0" standalone="no"?>
 <!DOCTYPE svg PUBLIC "-//W3C//DTD SVG 1.1//EN" 
 "http://www.w3.org/Graphics/SVG/1.1/DTD/svg11.dtd"> 
<svg
  xmlns:svg="http://www.w3.org/2000/svg"
  xmlns="http://www.w3.org/2000/svg"
  xmlns:xlink="http://www.w3.org/1999/xlink"
  version="1.1"
  width="297.0022mm" height="210.0072mm" viewBox="0.0000 0.0000 297.0022 210.0072">
<title>SVG Image created as EggPCB-B_Cu.svg date 2025/07/01 08:21:23 </title>
  <desc>Image generated by PCBNEW </desc>
<g style="fill:#000000; fill-opacity:1.0000;stroke:#000000; stroke-opacity:1.0000;
stroke-linecap:round; stroke-linejoin:round;"
 transform="translate(0 0) scale(1 1)">
<path style="fill:#000000; fill-opacity:1.0000; stroke:none;fill-rule:evenodd;"
d="M 112.1800,119.8000
113.8800,119.8000
113.8800,121.5000
112.1800,121.5000
Z" /> 
</g>
<g style="fill:#000000; fill-opacity:1.0000; stroke:none;">
<circle cx="110.4900" cy="120.6500" r="0.8500" /> 
<path style="fill:#000000; fill-opacity:1.0000; stroke:none;fill-rule:evenodd;"
d="M 114.7200,101.1800
114.7200,99.4800
116.4200,99.4800
116.4200,101.1800
Z" /> 
<path style="fill:#000000; fill-opacity:1.0000; stroke:none;fill-rule:evenodd;"
d="M 105.8300,121.5000
105.8300,119.8000
107.5300,119.8000
107.5300,121.5000
Z" /> 
<path style="fill:#000000; fill-opacity:1.0000; stroke:none;fill-rule:evenodd;"
d="M 102.0200,116.4200
102.0200,114.7200
103.7200,114.7200
103.7200,116.4200
Z" /> 
<path style="fill:#000000; fill-opacity:1.0000; stroke:none;fill-rule:evenodd;"
d="M 115.9900,121.5000
115.9900,119.8000
117.6900,119.8000
117.6900,121.5000
Z" /> 
<path style="fill:#000000; fill-opacity:1.0000; stroke:none;fill-rule:evenodd;"
d="M 110.9100,101.1800
110.9100,99.4800
112.6100,99.4800
112.6100,101.1800
Z" /> 
<path style="fill:#000000; fill-opacity:1.0000; stroke:none;fill-rule:evenodd;"
d="M 119.8000,112.6100
119.8000,110.9100
121.5000,110.9100
121.5000,112.6100
Z" /> 
<path style="fill:#000000; fill-opacity:1.0000; stroke:none;fill-rule:evenodd;"
d="M 107.1000,99.4800
108.8000,99.4800
108.8000,101.1800
107.1000,101.1800
Z" /> 
</g>
<g style="fill:#000000; fill-opacity:1.0000; stroke:none;">
<circle cx="105.4100" cy="100.3300" r="0.8500" /> 
<path style="fill:#000000; fill-opacity:1.0000; stroke:none;fill-rule:evenodd;"
d="M 98.2850,110.6200
98.2740,110.7220
98.2263,110.8500
98.1444,110.9594
98.0350,111.0413
97.9070,111.0890
97.8050,111.1000
95.5650,111.1000
95.4630,111.0890
95.3350,111.0413
95.2256,110.9594
95.1437,110.8500
95.0960,110.7220
95.0850,110.6200
95.0850,107.3800
95.0960,107.2780
95.1437,107.1500
95.2256,107.0406
95.3350,106.9587
95.4630,106.9110
95.5650,106.9000
97.8050,106.9000
97.9070,106.9110
98.0350,106.9587
98.1444,107.0406
98.2263,107.1500
98.2740,107.2780
98.2850,107.3800
Z" /> 
<path style="fill:#000000; fill-opacity:1.0000; stroke:none;fill-rule:evenodd;"
d="M 127.5850,110.6200
127.5740,110.7220
127.5263,110.8500
127.4444,110.9594
127.3350,111.0413
127.2070,111.0890
127.1050,111.1000
124.8650,111.1000
124.7630,111.0890
124.6350,111.0413
124.5256,110.9594
124.4437,110.8500
124.3960,110.7220
124.3850,110.6200
124.3850,107.3800
124.3960,107.2780
124.4437,107.1500
124.5256,107.0406
124.6350,106.9587
124.7630,106.9110
124.8650,106.9000
127.1050,106.9000
127.2070,106.9110
127.3350,106.9587
127.4444,107.0406
127.5263,107.1500
127.5740,107.2780
127.5850,107.3800
Z" /> 
</g>
<g style="fill:none; 
stroke:#000000; stroke-width:0.8000; stroke-opacity:1; 
stroke-linecap:round; stroke-linejoin:round;">
<path d="M117.6650 111.7600
L120.6500 111.7600
" />
<path d="M107.9500 103.6750
L115.5700 103.6750
" />
<path d="M115.5700 103.6750
L115.5700 100.3300
" />
<path d="M107.9500 100.3300
L107.9500 103.6750
" />
<path d="M123.4100 109.0000
L120.6500 111.7600
" />
<path d="M117.6650 111.7600
L110.4900 118.9350
" />
<path d="M110.4900 118.9350
L110.4900 120.6500
" />
<path d="M125.9850 109.0000
L123.4100 109.0000
" />
<path d="M96.6850 109.0000
L96.6850 109.3850
" />
<path d="M96.6850 109.3850
L102.8700 115.5700
" />
</g> 
</svg>
