<?xml version="1.0" standalone="no"?>
 <!DOCTYPE svg PUBLIC "-//W3C//DTD SVG 1.1//EN" 
 "http://www.w3.org/Graphics/SVG/1.1/DTD/svg11.dtd"> 
<svg
  xmlns:svg="http://www.w3.org/2000/svg"
  xmlns="http://www.w3.org/2000/svg"
  xmlns:xlink="http://www.w3.org/1999/xlink"
  version="1.1"
  width="297.0022mm" height="210.0072mm" viewBox="0.0000 0.0000 297.0022 210.0072">
<title>SVG Image created as EggPCB-NPTH-drl_map.svg date 2025/07/02 10:20:03 </title>
  <desc>Image generated by PCBNEW </desc>
<g style="fill:#000000; fill-opacity:1.0000;stroke:#000000; stroke-opacity:1.0000;
stroke-linecap:round; stroke-linejoin:round;"
 transform="translate(0 0) scale(1 1)">
<path style="fill:none; 
stroke:#000000; stroke-width:0.1500; stroke-opacity:1; 
stroke-linecap:round; stroke-linejoin:round;fill:none"
d="M 167.2511,28.3897
177.7511,44.5147
197.2511,52.0147
197.4011,65.2147
176.7761,74.2147
170.0261,97.6147
117.3011,97.7647
114.9761,77.2897
99.6011,65.2897
99.6011,52.0147
120.9761,42.7147
125.7761,28.2397
Z" /> 
</g>
<g style="fill:none; 
stroke:#000000; stroke-width:0.2000; stroke-opacity:1; 
stroke-linecap:round; stroke-linejoin:round;">
<text x="101.5261" y="101.0397"
textLength="14.8667" font-size="2.6667" lengthAdjust="spacingAndGlyphs"
text-anchor="start" opacity="0" stroke-opacity="0">Drill Map:</text>
<g class="stroked-text"><desc>Drill Map:</desc>
<path d="M102.1339 100.9545
L102.1339 98.9545
" />
<path d="M102.1339 98.9545
L102.6101 98.9545
" />
<path d="M102.6101 98.9545
L102.8958 99.0497
" />
<path d="M102.8958 99.0497
L103.0862 99.2402
" />
<path d="M103.0862 99.2402
L103.1815 99.4307
" />
<path d="M103.1815 99.4307
L103.2767 99.8116
" />
<path d="M103.2767 99.8116
L103.2767 100.0974
" />
<path d="M103.2767 100.0974
L103.1815 100.4783
" />
<path d="M103.1815 100.4783
L103.0862 100.6688
" />
<path d="M103.0862 100.6688
L102.8958 100.8593
" />
<path d="M102.8958 100.8593
L102.6101 100.9545
" />
<path d="M102.6101 100.9545
L102.1339 100.9545
" />
<path d="M104.1339 100.9545
L104.1339 99.6212
" />
<path d="M104.1339 100.0021
L104.2291 99.8116
" />
<path d="M104.2291 99.8116
L104.3243 99.7164
" />
<path d="M104.3243 99.7164
L104.5148 99.6212
" />
<path d="M104.5148 99.6212
L104.7053 99.6212
" />
<path d="M105.3720 100.9545
L105.3720 99.6212
" />
<path d="M105.3720 98.9545
L105.2767 99.0497
" />
<path d="M105.2767 99.0497
L105.3720 99.1450
" />
<path d="M105.3720 99.1450
L105.4672 99.0497
" />
<path d="M105.4672 99.0497
L105.3720 98.9545
" />
<path d="M105.3720 98.9545
L105.3720 99.1450
" />
<path d="M106.6101 100.9545
L106.4196 100.8593
" />
<path d="M106.4196 100.8593
L106.3243 100.6688
" />
<path d="M106.3243 100.6688
L106.3243 98.9545
" />
<path d="M107.6577 100.9545
L107.4672 100.8593
" />
<path d="M107.4672 100.8593
L107.3720 100.6688
" />
<path d="M107.3720 100.6688
L107.3720 98.9545
" />
<path d="M109.9434 100.9545
L109.9434 98.9545
" />
<path d="M109.9434 98.9545
L110.6101 100.3831
" />
<path d="M110.6101 100.3831
L111.2767 98.9545
" />
<path d="M111.2767 98.9545
L111.2767 100.9545
" />
<path d="M113.0863 100.9545
L113.0863 99.9069
" />
<path d="M113.0863 99.9069
L112.9910 99.7164
" />
<path d="M112.9910 99.7164
L112.8005 99.6212
" />
<path d="M112.8005 99.6212
L112.4196 99.6212
" />
<path d="M112.4196 99.6212
L112.2291 99.7164
" />
<path d="M113.0863 100.8593
L112.8958 100.9545
" />
<path d="M112.8958 100.9545
L112.4196 100.9545
" />
<path d="M112.4196 100.9545
L112.2291 100.8593
" />
<path d="M112.2291 100.8593
L112.1339 100.6688
" />
<path d="M112.1339 100.6688
L112.1339 100.4783
" />
<path d="M112.1339 100.4783
L112.2291 100.2878
" />
<path d="M112.2291 100.2878
L112.4196 100.1926
" />
<path d="M112.4196 100.1926
L112.8958 100.1926
" />
<path d="M112.8958 100.1926
L113.0863 100.0974
" />
<path d="M114.0386 99.6212
L114.0386 101.6212
" />
<path d="M114.0386 99.7164
L114.2291 99.6212
" />
<path d="M114.2291 99.6212
L114.6101 99.6212
" />
<path d="M114.6101 99.6212
L114.8005 99.7164
" />
<path d="M114.8005 99.7164
L114.8958 99.8116
" />
<path d="M114.8958 99.8116
L114.9910 100.0021
" />
<path d="M114.9910 100.0021
L114.9910 100.5735
" />
<path d="M114.9910 100.5735
L114.8958 100.7640
" />
<path d="M114.8958 100.7640
L114.8005 100.8593
" />
<path d="M114.8005 100.8593
L114.6101 100.9545
" />
<path d="M114.6101 100.9545
L114.2291 100.9545
" />
<path d="M114.2291 100.9545
L114.0386 100.8593
" />
<path d="M115.8482 100.7640
L115.9434 100.8593
" />
<path d="M115.9434 100.8593
L115.8482 100.9545
" />
<path d="M115.8482 100.9545
L115.7529 100.8593
" />
<path d="M115.7529 100.8593
L115.8482 100.7640
" />
<path d="M115.8482 100.7640
L115.8482 100.9545
" />
<path d="M115.8482 99.7164
L115.9434 99.8116
" />
<path d="M115.9434 99.8116
L115.8482 99.9069
" />
<path d="M115.8482 99.9069
L115.7529 99.8116
" />
<path d="M115.7529 99.8116
L115.8482 99.7164
" />
<path d="M115.8482 99.7164
L115.8482 99.9069
" />
</g></g> 
</svg>
