<?xml version="1.0" standalone="no"?>
 <!DOCTYPE svg PUBLIC "-//W3C//DTD SVG 1.1//EN" 
 "http://www.w3.org/Graphics/SVG/1.1/DTD/svg11.dtd"> 
<svg
  xmlns:svg="http://www.w3.org/2000/svg"
  xmlns="http://www.w3.org/2000/svg"
  xmlns:xlink="http://www.w3.org/1999/xlink"
  version="1.1"
  width="297.0022mm" height="210.0072mm" viewBox="0.0000 0.0000 297.0022 210.0072">
<title>SVG Image created as EggPCB-F_Silkscreen.svg date 2025/07/02 10:19:59 </title>
  <desc>Image generated by PCBNEW </desc>
<g style="fill:#000000; fill-opacity:1.0000;stroke:#000000; stroke-opacity:1.0000;
stroke-linecap:round; stroke-linejoin:round;"
 transform="translate(0 0) scale(1 1)">
</g>
<g style="fill:none; 
stroke:#000000; stroke-width:0.1500; stroke-opacity:1; 
stroke-linecap:round; stroke-linejoin:round;">
<text x="111.5000" y="110.8800"
textLength="2.2024" font-size="1.3333" lengthAdjust="spacingAndGlyphs"
text-anchor="middle" opacity="0" stroke-opacity="0">R1</text>
<g class="stroked-text"><desc>R1</desc>
<path d="M111.3333 110.8348
L111.0000 110.3586
" />
<path d="M110.7619 110.8348
L110.7619 109.8348
" />
<path d="M110.7619 109.8348
L111.1429 109.8348
" />
<path d="M111.1429 109.8348
L111.2381 109.8824
" />
<path d="M111.2381 109.8824
L111.2857 109.9301
" />
<path d="M111.2857 109.9301
L111.3333 110.0253
" />
<path d="M111.3333 110.0253
L111.3333 110.1682
" />
<path d="M111.3333 110.1682
L111.2857 110.2634
" />
<path d="M111.2857 110.2634
L111.2381 110.3110
" />
<path d="M111.2381 110.3110
L111.1429 110.3586
" />
<path d="M111.1429 110.3586
L110.7619 110.3586
" />
<path d="M112.2857 110.8348
L111.7143 110.8348
" />
<path d="M112.0000 110.8348
L112.0000 109.8348
" />
<path d="M112.0000 109.8348
L111.9048 109.9777
" />
<path d="M111.9048 109.9777
L111.8095 110.0729
" />
<path d="M111.8095 110.0729
L111.7143 110.1205
" />
</g><text x="111.5000" y="106.3800"
textLength="2.2024" font-size="1.3333" lengthAdjust="spacingAndGlyphs"
text-anchor="middle" opacity="0" stroke-opacity="0">R5</text>
<g class="stroked-text"><desc>R5</desc>
<path d="M111.3333 106.3348
L111.0000 105.8586
" />
<path d="M110.7619 106.3348
L110.7619 105.3348
" />
<path d="M110.7619 105.3348
L111.1429 105.3348
" />
<path d="M111.1429 105.3348
L111.2381 105.3824
" />
<path d="M111.2381 105.3824
L111.2857 105.4301
" />
<path d="M111.2857 105.4301
L111.3333 105.5253
" />
<path d="M111.3333 105.5253
L111.3333 105.6682
" />
<path d="M111.3333 105.6682
L111.2857 105.7634
" />
<path d="M111.2857 105.7634
L111.2381 105.8110
" />
<path d="M111.2381 105.8110
L111.1429 105.8586
" />
<path d="M111.1429 105.8586
L110.7619 105.8586
" />
<path d="M112.2381 105.3348
L111.7619 105.3348
" />
<path d="M111.7619 105.3348
L111.7143 105.8110
" />
<path d="M111.7143 105.8110
L111.7619 105.7634
" />
<path d="M111.7619 105.7634
L111.8571 105.7158
" />
<path d="M111.8571 105.7158
L112.0952 105.7158
" />
<path d="M112.0952 105.7158
L112.1905 105.7634
" />
<path d="M112.1905 105.7634
L112.2381 105.8110
" />
<path d="M112.2381 105.8110
L112.2857 105.9062
" />
<path d="M112.2857 105.9062
L112.2857 106.1443
" />
<path d="M112.2857 106.1443
L112.2381 106.2396
" />
<path d="M112.2381 106.2396
L112.1905 106.2872
" />
<path d="M112.1905 106.2872
L112.0952 106.3348
" />
<path d="M112.0952 106.3348
L111.8571 106.3348
" />
<path d="M111.8571 106.3348
L111.7619 106.2872
" />
<path d="M111.7619 106.2872
L111.7143 106.2396
" />
</g><text x="102.8700" y="113.6900"
textLength="1.9643" font-size="1.3333" lengthAdjust="spacingAndGlyphs"
text-anchor="middle" opacity="0" stroke-opacity="0">J7</text>
<g class="stroked-text"><desc>J7</desc>
<path d="M102.5367 112.6448
L102.5367 113.3591
" />
<path d="M102.5367 113.3591
L102.4890 113.5020
" />
<path d="M102.4890 113.5020
L102.3938 113.5972
" />
<path d="M102.3938 113.5972
L102.2510 113.6448
" />
<path d="M102.2510 113.6448
L102.1557 113.6448
" />
<path d="M102.9176 112.6448
L103.5843 112.6448
" />
<path d="M103.5843 112.6448
L103.1557 113.6448
" />
</g><text x="111.7600" y="98.4500"
textLength="1.9643" font-size="1.3333" lengthAdjust="spacingAndGlyphs"
text-anchor="middle" opacity="0" stroke-opacity="0">J1</text>
<g class="stroked-text"><desc>J1</desc>
<path d="M111.4267 97.4048
L111.4267 98.1191
" />
<path d="M111.4267 98.1191
L111.3790 98.2620
" />
<path d="M111.3790 98.2620
L111.2838 98.3572
" />
<path d="M111.2838 98.3572
L111.1410 98.4048
" />
<path d="M111.1410 98.4048
L111.0457 98.4048
" />
<path d="M112.4267 98.4048
L111.8552 98.4048
" />
<path d="M112.1410 98.4048
L112.1410 97.4048
" />
<path d="M112.1410 97.4048
L112.0457 97.5477
" />
<path d="M112.0457 97.5477
L111.9505 97.6429
" />
<path d="M111.9505 97.6429
L111.8552 97.6905
" />
</g><text x="106.6800" y="118.7700"
textLength="1.9643" font-size="1.3333" lengthAdjust="spacingAndGlyphs"
text-anchor="middle" opacity="0" stroke-opacity="0">J4</text>
<g class="stroked-text"><desc>J4</desc>
<path d="M106.3467 117.7248
L106.3467 118.4391
" />
<path d="M106.3467 118.4391
L106.2990 118.5820
" />
<path d="M106.2990 118.5820
L106.2038 118.6772
" />
<path d="M106.2038 118.6772
L106.0610 118.7248
" />
<path d="M106.0610 118.7248
L105.9657 118.7248
" />
<path d="M107.2514 118.0582
L107.2514 118.7248
" />
<path d="M107.0133 117.6772
L106.7752 118.3915
" />
<path d="M106.7752 118.3915
L107.3943 118.3915
" />
</g><text x="115.5700" y="98.4500"
textLength="1.9643" font-size="1.3333" lengthAdjust="spacingAndGlyphs"
text-anchor="middle" opacity="0" stroke-opacity="0">J3</text>
<g class="stroked-text"><desc>J3</desc>
<path d="M115.2367 97.4048
L115.2367 98.1191
" />
<path d="M115.2367 98.1191
L115.1890 98.2620
" />
<path d="M115.1890 98.2620
L115.0938 98.3572
" />
<path d="M115.0938 98.3572
L114.9510 98.4048
" />
<path d="M114.9510 98.4048
L114.8557 98.4048
" />
<path d="M115.6176 97.4048
L116.2367 97.4048
" />
<path d="M116.2367 97.4048
L115.9033 97.7858
" />
<path d="M115.9033 97.7858
L116.0462 97.7858
" />
<path d="M116.0462 97.7858
L116.1414 97.8334
" />
<path d="M116.1414 97.8334
L116.1890 97.8810
" />
<path d="M116.1890 97.8810
L116.2367 97.9762
" />
<path d="M116.2367 97.9762
L116.2367 98.2143
" />
<path d="M116.2367 98.2143
L116.1890 98.3096
" />
<path d="M116.1890 98.3096
L116.1414 98.3572
" />
<path d="M116.1414 98.3572
L116.0462 98.4048
" />
<path d="M116.0462 98.4048
L115.7605 98.4048
" />
<path d="M115.7605 98.4048
L115.6652 98.3572
" />
<path d="M115.6652 98.3572
L115.6176 98.3096
" />
</g><text x="116.8400" y="118.7700"
textLength="1.9643" font-size="1.3333" lengthAdjust="spacingAndGlyphs"
text-anchor="middle" opacity="0" stroke-opacity="0">J2</text>
<g class="stroked-text"><desc>J2</desc>
<path d="M116.5067 117.7248
L116.5067 118.4391
" />
<path d="M116.5067 118.4391
L116.4590 118.5820
" />
<path d="M116.4590 118.5820
L116.3638 118.6772
" />
<path d="M116.3638 118.6772
L116.2210 118.7248
" />
<path d="M116.2210 118.7248
L116.1257 118.7248
" />
<path d="M116.9352 117.8201
L116.9829 117.7724
" />
<path d="M116.9829 117.7724
L117.0781 117.7248
" />
<path d="M117.0781 117.7248
L117.3162 117.7248
" />
<path d="M117.3162 117.7248
L117.4114 117.7724
" />
<path d="M117.4114 117.7724
L117.4590 117.8201
" />
<path d="M117.4590 117.8201
L117.5067 117.9153
" />
<path d="M117.5067 117.9153
L117.5067 118.0105
" />
<path d="M117.5067 118.0105
L117.4590 118.1534
" />
<path d="M117.4590 118.1534
L116.8876 118.7248
" />
<path d="M116.8876 118.7248
L117.5067 118.7248
" />
</g><g transform="rotate(-90.000000 115.4100 120.6500)">
<text x="115.4100" y="121.1500"
textLength="1.9643" font-size="1.3333" lengthAdjust="spacingAndGlyphs"
text-anchor="middle" opacity="0" stroke-opacity="0">J6</text>
</g>
<g class="stroked-text"><desc>J6</desc>
<path d="M114.8648 120.9833
L115.5791 120.9833
" />
<path d="M115.5791 120.9833
L115.7220 121.0310
" />
<path d="M115.7220 121.0310
L115.8172 121.1262
" />
<path d="M115.8172 121.1262
L115.8648 121.2690
" />
<path d="M115.8648 121.2690
L115.8648 121.3643
" />
<path d="M114.8648 120.0786
L114.8648 120.2690
" />
<path d="M114.8648 120.2690
L114.9124 120.3643
" />
<path d="M114.9124 120.3643
L114.9601 120.4119
" />
<path d="M114.9601 120.4119
L115.1029 120.5071
" />
<path d="M115.1029 120.5071
L115.2934 120.5548
" />
<path d="M115.2934 120.5548
L115.6743 120.5548
" />
<path d="M115.6743 120.5548
L115.7696 120.5071
" />
<path d="M115.7696 120.5071
L115.8172 120.4595
" />
<path d="M115.8172 120.4595
L115.8648 120.3643
" />
<path d="M115.8648 120.3643
L115.8648 120.1738
" />
<path d="M115.8648 120.1738
L115.8172 120.0786
" />
<path d="M115.8172 120.0786
L115.7696 120.0310
" />
<path d="M115.7696 120.0310
L115.6743 119.9833
" />
<path d="M115.6743 119.9833
L115.4362 119.9833
" />
<path d="M115.4362 119.9833
L115.3410 120.0310
" />
<path d="M115.3410 120.0310
L115.2934 120.0786
" />
<path d="M115.2934 120.0786
L115.2458 120.1738
" />
<path d="M115.2458 120.1738
L115.2458 120.3643
" />
<path d="M115.2458 120.3643
L115.2934 120.4595
" />
<path d="M115.2934 120.4595
L115.3410 120.5071
" />
<path d="M115.3410 120.5071
L115.4362 120.5548
" />
</g><g transform="rotate(-90.000000 110.3300 100.3300)">
<text x="110.3300" y="100.8300"
textLength="1.9643" font-size="1.3333" lengthAdjust="spacingAndGlyphs"
text-anchor="middle" opacity="0" stroke-opacity="0">J5</text>
</g>
<g class="stroked-text"><desc>J5</desc>
<path d="M109.7848 100.6633
L110.4991 100.6633
" />
<path d="M110.4991 100.6633
L110.6420 100.7110
" />
<path d="M110.6420 100.7110
L110.7372 100.8062
" />
<path d="M110.7372 100.8062
L110.7848 100.9490
" />
<path d="M110.7848 100.9490
L110.7848 101.0443
" />
<path d="M109.7848 99.7110
L109.7848 100.1871
" />
<path d="M109.7848 100.1871
L110.2610 100.2348
" />
<path d="M110.2610 100.2348
L110.2134 100.1871
" />
<path d="M110.2134 100.1871
L110.1658 100.0919
" />
<path d="M110.1658 100.0919
L110.1658 99.8538
" />
<path d="M110.1658 99.8538
L110.2134 99.7586
" />
<path d="M110.2134 99.7586
L110.2610 99.7110
" />
<path d="M110.2610 99.7110
L110.3562 99.6633
" />
<path d="M110.3562 99.6633
L110.5943 99.6633
" />
<path d="M110.5943 99.6633
L110.6896 99.7110
" />
<path d="M110.6896 99.7110
L110.7372 99.7586
" />
<path d="M110.7372 99.7586
L110.7848 99.8538
" />
<path d="M110.7848 99.8538
L110.7848 100.0919
" />
<path d="M110.7848 100.0919
L110.7372 100.1871
" />
<path d="M110.7372 100.1871
L110.6896 100.2348
" />
</g></g>
<g style="fill:none; 
stroke:#000000; stroke-width:0.1200; stroke-opacity:1; 
stroke-linecap:round; stroke-linejoin:round;">
<path d="M114.7700 114.1200
L114.7700 113.7900
" />
<path d="M114.7700 111.3800
L114.7700 111.7100
" />
<path d="M108.2300 114.1200
L114.7700 114.1200
" />
<path d="M108.2300 113.7900
L108.2300 114.1200
" />
<path d="M108.2300 111.7100
L108.2300 111.3800
" />
<path d="M108.2300 111.3800
L114.7700 111.3800
" />
<path d="M108.2300 106.8800
L114.7700 106.8800
" />
<path d="M108.2300 107.2100
L108.2300 106.8800
" />
<path d="M108.2300 109.2900
L108.2300 109.6200
" />
<path d="M108.2300 109.6200
L114.7700 109.6200
" />
<path d="M114.7700 106.8800
L114.7700 107.2100
" />
<path d="M114.7700 109.6200
L114.7700 109.2900
" />
<path d="M104.2500 116.8400
L104.2500 116.9500
" />
<path d="M101.4900 116.9500
L104.2500 116.9500
" />
<path d="M101.4900 116.8400
L104.2500 116.8400
" />
<path d="M101.4900 116.8400
L101.4900 116.9500
" />
<path d="M101.4900 115.5700
L101.4900 114.1900
" />
<path d="M101.4900 114.1900
L102.8700 114.1900
" />
<path d="M110.3800 98.9500
L111.7600 98.9500
" />
<path d="M110.3800 100.3300
L110.3800 98.9500
" />
<path d="M110.3800 101.6000
L110.3800 101.7100
" />
<path d="M110.3800 101.6000
L113.1400 101.6000
" />
<path d="M110.3800 101.7100
L113.1400 101.7100
" />
<path d="M113.1400 101.6000
L113.1400 101.7100
" />
<path d="M105.3000 119.2700
L106.6800 119.2700
" />
<path d="M105.3000 120.6500
L105.3000 119.2700
" />
<path d="M105.3000 121.9200
L105.3000 122.0300
" />
<path d="M105.3000 121.9200
L108.0600 121.9200
" />
<path d="M105.3000 122.0300
L108.0600 122.0300
" />
<path d="M108.0600 121.9200
L108.0600 122.0300
" />
<path d="M114.1900 98.9500
L115.5700 98.9500
" />
<path d="M114.1900 100.3300
L114.1900 98.9500
" />
<path d="M114.1900 101.6000
L114.1900 101.7100
" />
<path d="M114.1900 101.6000
L116.9500 101.6000
" />
<path d="M114.1900 101.7100
L116.9500 101.7100
" />
<path d="M116.9500 101.6000
L116.9500 101.7100
" />
<path d="M115.4600 119.2700
L116.8400 119.2700
" />
<path d="M115.4600 120.6500
L115.4600 119.2700
" />
<path d="M115.4600 121.9200
L115.4600 122.0300
" />
<path d="M115.4600 121.9200
L118.2200 121.9200
" />
<path d="M115.4600 122.0300
L118.2200 122.0300
" />
<path d="M118.2200 121.9200
L118.2200 122.0300
" />
<path d="M109.1100 119.2700
L109.1100 122.0300
" />
<path d="M111.7600 119.2700
L109.1100 119.2700
" />
<path d="M111.7600 119.2700
L111.7600 122.0300
" />
<path d="M111.7600 122.0300
L109.1100 122.0300
" />
<path d="M113.0300 119.2700
L114.4100 119.2700
" />
<path d="M114.4100 119.2700
L114.4100 120.6500
" />
<path d="M104.0300 98.9500
L104.0300 101.7100
" />
<path d="M106.6800 98.9500
L104.0300 98.9500
" />
<path d="M106.6800 98.9500
L106.6800 101.7100
" />
<path d="M106.6800 101.7100
L104.0300 101.7100
" />
<path d="M107.9500 98.9500
L109.3300 98.9500
" />
<path d="M109.3300 98.9500
L109.3300 100.3300
" />
</g> 
</svg>
