<?xml version="1.0" standalone="no"?>
 <!DOCTYPE svg PUBLIC "-//W3C//DTD SVG 1.1//EN" 
 "http://www.w3.org/Graphics/SVG/1.1/DTD/svg11.dtd"> 
<svg
  xmlns:svg="http://www.w3.org/2000/svg"
  xmlns="http://www.w3.org/2000/svg"
  xmlns:xlink="http://www.w3.org/1999/xlink"
  version="1.1"
  width="297.0022mm" height="210.0072mm" viewBox="0.0000 0.0000 297.0022 210.0072">
<title>SVG Image created as EggPCB-F_Silkscreen.svg date 2025/07/01 08:21:23 </title>
  <desc>Image generated by PCBNEW </desc>
<g style="fill:#000000; fill-opacity:1.0000;stroke:#000000; stroke-opacity:1.0000;
stroke-linecap:round; stroke-linejoin:round;"
 transform="translate(0 0) scale(1 1)">
</g>
<g style="fill:none; 
stroke:#000000; stroke-width:0.1500; stroke-opacity:1; 
stroke-linecap:round; stroke-linejoin:round;">
<g transform="rotate(-90.000000 111.6000 117.1975)">
<text x="111.6000" y="117.6975"
textLength="2.2024" font-size="1.3333" lengthAdjust="spacingAndGlyphs"
text-anchor="middle" opacity="0" stroke-opacity="0">R1</text>
</g>
<g class="stroked-text"><desc>R1</desc>
<path d="M112.0548 117.3642
L111.5786 117.6975
" />
<path d="M112.0548 117.9356
L111.0548 117.9356
" />
<path d="M111.0548 117.9356
L111.0548 117.5546
" />
<path d="M111.0548 117.5546
L111.1024 117.4594
" />
<path d="M111.1024 117.4594
L111.1501 117.4118
" />
<path d="M111.1501 117.4118
L111.2453 117.3642
" />
<path d="M111.2453 117.3642
L111.3882 117.3642
" />
<path d="M111.3882 117.3642
L111.4834 117.4118
" />
<path d="M111.4834 117.4118
L111.5310 117.4594
" />
<path d="M111.5310 117.4594
L111.5786 117.5546
" />
<path d="M111.5786 117.5546
L111.5786 117.9356
" />
<path d="M112.0548 116.4118
L112.0548 116.9832
" />
<path d="M112.0548 116.6975
L111.0548 116.6975
" />
<path d="M111.0548 116.6975
L111.1977 116.7927
" />
<path d="M111.1977 116.7927
L111.2929 116.8880
" />
<path d="M111.2929 116.8880
L111.3405 116.9832
" />
</g><g transform="rotate(-90.000000 120.8100 107.5925)">
<text x="120.8100" y="108.0925"
textLength="2.2024" font-size="1.3333" lengthAdjust="spacingAndGlyphs"
text-anchor="middle" opacity="0" stroke-opacity="0">R7</text>
</g>
<g class="stroked-text"><desc>R7</desc>
<path d="M121.2648 107.7592
L120.7886 108.0925
" />
<path d="M121.2648 108.3306
L120.2648 108.3306
" />
<path d="M120.2648 108.3306
L120.2648 107.9496
" />
<path d="M120.2648 107.9496
L120.3124 107.8544
" />
<path d="M120.3124 107.8544
L120.3601 107.8068
" />
<path d="M120.3601 107.8068
L120.4553 107.7592
" />
<path d="M120.4553 107.7592
L120.5982 107.7592
" />
<path d="M120.5982 107.7592
L120.6934 107.8068
" />
<path d="M120.6934 107.8068
L120.7410 107.8544
" />
<path d="M120.7410 107.8544
L120.7886 107.9496
" />
<path d="M120.7886 107.9496
L120.7886 108.3306
" />
<path d="M120.2648 107.4258
L120.2648 106.7592
" />
<path d="M120.2648 106.7592
L121.2648 107.1877
" />
</g><g transform="rotate(-90.000000 115.4100 120.6500)">
<text x="115.4100" y="121.1500"
textLength="1.9643" font-size="1.3333" lengthAdjust="spacingAndGlyphs"
text-anchor="middle" opacity="0" stroke-opacity="0">J6</text>
</g>
<g class="stroked-text"><desc>J6</desc>
<path d="M114.8648 120.9833
L115.5791 120.9833
" />
<path d="M115.5791 120.9833
L115.7220 121.0310
" />
<path d="M115.7220 121.0310
L115.8172 121.1262
" />
<path d="M115.8172 121.1262
L115.8648 121.2690
" />
<path d="M115.8648 121.2690
L115.8648 121.3643
" />
<path d="M114.8648 120.0786
L114.8648 120.2690
" />
<path d="M114.8648 120.2690
L114.9124 120.3643
" />
<path d="M114.9124 120.3643
L114.9601 120.4119
" />
<path d="M114.9601 120.4119
L115.1029 120.5071
" />
<path d="M115.1029 120.5071
L115.2934 120.5548
" />
<path d="M115.2934 120.5548
L115.6743 120.5548
" />
<path d="M115.6743 120.5548
L115.7696 120.5071
" />
<path d="M115.7696 120.5071
L115.8172 120.4595
" />
<path d="M115.8172 120.4595
L115.8648 120.3643
" />
<path d="M115.8648 120.3643
L115.8648 120.1738
" />
<path d="M115.8648 120.1738
L115.8172 120.0786
" />
<path d="M115.8172 120.0786
L115.7696 120.0310
" />
<path d="M115.7696 120.0310
L115.6743 119.9833
" />
<path d="M115.6743 119.9833
L115.4362 119.9833
" />
<path d="M115.4362 119.9833
L115.3410 120.0310
" />
<path d="M115.3410 120.0310
L115.2934 120.0786
" />
<path d="M115.2934 120.0786
L115.2458 120.1738
" />
<path d="M115.2458 120.1738
L115.2458 120.3643
" />
<path d="M115.2458 120.3643
L115.2934 120.4595
" />
<path d="M115.2934 120.4595
L115.3410 120.5071
" />
<path d="M115.3410 120.5071
L115.4362 120.5548
" />
</g><text x="115.5700" y="98.4500"
textLength="1.9643" font-size="1.3333" lengthAdjust="spacingAndGlyphs"
text-anchor="middle" opacity="0" stroke-opacity="0">J3</text>
<g class="stroked-text"><desc>J3</desc>
<path d="M115.2367 97.4048
L115.2367 98.1191
" />
<path d="M115.2367 98.1191
L115.1890 98.2620
" />
<path d="M115.1890 98.2620
L115.0938 98.3572
" />
<path d="M115.0938 98.3572
L114.9510 98.4048
" />
<path d="M114.9510 98.4048
L114.8557 98.4048
" />
<path d="M115.6176 97.4048
L116.2367 97.4048
" />
<path d="M116.2367 97.4048
L115.9033 97.7858
" />
<path d="M115.9033 97.7858
L116.0462 97.7858
" />
<path d="M116.0462 97.7858
L116.1414 97.8334
" />
<path d="M116.1414 97.8334
L116.1890 97.8810
" />
<path d="M116.1890 97.8810
L116.2367 97.9762
" />
<path d="M116.2367 97.9762
L116.2367 98.2143
" />
<path d="M116.2367 98.2143
L116.1890 98.3096
" />
<path d="M116.1890 98.3096
L116.1414 98.3572
" />
<path d="M116.1414 98.3572
L116.0462 98.4048
" />
<path d="M116.0462 98.4048
L115.7605 98.4048
" />
<path d="M115.7605 98.4048
L115.6652 98.3572
" />
<path d="M115.6652 98.3572
L115.6176 98.3096
" />
</g><text x="106.6800" y="118.7700"
textLength="1.9643" font-size="1.3333" lengthAdjust="spacingAndGlyphs"
text-anchor="middle" opacity="0" stroke-opacity="0">J4</text>
<g class="stroked-text"><desc>J4</desc>
<path d="M106.3467 117.7248
L106.3467 118.4391
" />
<path d="M106.3467 118.4391
L106.2990 118.5820
" />
<path d="M106.2990 118.5820
L106.2038 118.6772
" />
<path d="M106.2038 118.6772
L106.0610 118.7248
" />
<path d="M106.0610 118.7248
L105.9657 118.7248
" />
<path d="M107.2514 118.0582
L107.2514 118.7248
" />
<path d="M107.0133 117.6772
L106.7752 118.3915
" />
<path d="M106.7752 118.3915
L107.3943 118.3915
" />
</g><text x="102.8700" y="113.6900"
textLength="1.9643" font-size="1.3333" lengthAdjust="spacingAndGlyphs"
text-anchor="middle" opacity="0" stroke-opacity="0">J7</text>
<g class="stroked-text"><desc>J7</desc>
<path d="M102.5367 112.6448
L102.5367 113.3591
" />
<path d="M102.5367 113.3591
L102.4890 113.5020
" />
<path d="M102.4890 113.5020
L102.3938 113.5972
" />
<path d="M102.3938 113.5972
L102.2510 113.6448
" />
<path d="M102.2510 113.6448
L102.1557 113.6448
" />
<path d="M102.9176 112.6448
L103.5843 112.6448
" />
<path d="M103.5843 112.6448
L103.1557 113.6448
" />
</g><text x="116.8400" y="118.7700"
textLength="1.9643" font-size="1.3333" lengthAdjust="spacingAndGlyphs"
text-anchor="middle" opacity="0" stroke-opacity="0">J2</text>
<g class="stroked-text"><desc>J2</desc>
<path d="M116.5067 117.7248
L116.5067 118.4391
" />
<path d="M116.5067 118.4391
L116.4590 118.5820
" />
<path d="M116.4590 118.5820
L116.3638 118.6772
" />
<path d="M116.3638 118.6772
L116.2210 118.7248
" />
<path d="M116.2210 118.7248
L116.1257 118.7248
" />
<path d="M116.9352 117.8201
L116.9829 117.7724
" />
<path d="M116.9829 117.7724
L117.0781 117.7248
" />
<path d="M117.0781 117.7248
L117.3162 117.7248
" />
<path d="M117.3162 117.7248
L117.4114 117.7724
" />
<path d="M117.4114 117.7724
L117.4590 117.8201
" />
<path d="M117.4590 117.8201
L117.5067 117.9153
" />
<path d="M117.5067 117.9153
L117.5067 118.0105
" />
<path d="M117.5067 118.0105
L117.4590 118.1534
" />
<path d="M117.4590 118.1534
L116.8876 118.7248
" />
<path d="M116.8876 118.7248
L117.5067 118.7248
" />
</g><text x="111.7600" y="98.4500"
textLength="1.9643" font-size="1.3333" lengthAdjust="spacingAndGlyphs"
text-anchor="middle" opacity="0" stroke-opacity="0">J1</text>
<g class="stroked-text"><desc>J1</desc>
<path d="M111.4267 97.4048
L111.4267 98.1191
" />
<path d="M111.4267 98.1191
L111.3790 98.2620
" />
<path d="M111.3790 98.2620
L111.2838 98.3572
" />
<path d="M111.2838 98.3572
L111.1410 98.4048
" />
<path d="M111.1410 98.4048
L111.0457 98.4048
" />
<path d="M112.4267 98.4048
L111.8552 98.4048
" />
<path d="M112.1410 98.4048
L112.1410 97.4048
" />
<path d="M112.1410 97.4048
L112.0457 97.5477
" />
<path d="M112.0457 97.5477
L111.9505 97.6429
" />
<path d="M111.9505 97.6429
L111.8552 97.6905
" />
</g><g transform="rotate(-90.000000 115.8200 112.0875)">
<text x="115.8200" y="112.5875"
textLength="2.2024" font-size="1.3333" lengthAdjust="spacingAndGlyphs"
text-anchor="middle" opacity="0" stroke-opacity="0">R4</text>
</g>
<g class="stroked-text"><desc>R4</desc>
<path d="M116.2748 112.2542
L115.7986 112.5875
" />
<path d="M116.2748 112.8256
L115.2748 112.8256
" />
<path d="M115.2748 112.8256
L115.2748 112.4446
" />
<path d="M115.2748 112.4446
L115.3224 112.3494
" />
<path d="M115.3224 112.3494
L115.3701 112.3018
" />
<path d="M115.3701 112.3018
L115.4653 112.2542
" />
<path d="M115.4653 112.2542
L115.6082 112.2542
" />
<path d="M115.6082 112.2542
L115.7034 112.3018
" />
<path d="M115.7034 112.3018
L115.7510 112.3494
" />
<path d="M115.7510 112.3494
L115.7986 112.4446
" />
<path d="M115.7986 112.4446
L115.7986 112.8256
" />
<path d="M115.6082 111.3970
L116.2748 111.3970
" />
<path d="M115.2272 111.6351
L115.9415 111.8732
" />
<path d="M115.9415 111.8732
L115.9415 111.2542
" />
</g><text x="113.3875" y="112.1000"
textLength="2.2024" font-size="1.3333" lengthAdjust="spacingAndGlyphs"
text-anchor="middle" opacity="0" stroke-opacity="0">R2</text>
<g class="stroked-text"><desc>R2</desc>
<path d="M113.2208 112.0548
L112.8875 111.5786
" />
<path d="M112.6494 112.0548
L112.6494 111.0548
" />
<path d="M112.6494 111.0548
L113.0304 111.0548
" />
<path d="M113.0304 111.0548
L113.1256 111.1024
" />
<path d="M113.1256 111.1024
L113.1732 111.1501
" />
<path d="M113.1732 111.1501
L113.2208 111.2453
" />
<path d="M113.2208 111.2453
L113.2208 111.3882
" />
<path d="M113.2208 111.3882
L113.1732 111.4834
" />
<path d="M113.1732 111.4834
L113.1256 111.5310
" />
<path d="M113.1256 111.5310
L113.0304 111.5786
" />
<path d="M113.0304 111.5786
L112.6494 111.5786
" />
<path d="M113.6018 111.1501
L113.6494 111.1024
" />
<path d="M113.6494 111.1024
L113.7446 111.0548
" />
<path d="M113.7446 111.0548
L113.9827 111.0548
" />
<path d="M113.9827 111.0548
L114.0780 111.1024
" />
<path d="M114.0780 111.1024
L114.1256 111.1501
" />
<path d="M114.1256 111.1501
L114.1732 111.2453
" />
<path d="M114.1732 111.2453
L114.1732 111.3405
" />
<path d="M114.1732 111.3405
L114.1256 111.4834
" />
<path d="M114.1256 111.4834
L113.5542 112.0548
" />
<path d="M113.5542 112.0548
L114.1732 112.0548
" />
</g><g transform="rotate(-90.000000 105.2950 111.4125)">
<text x="105.2950" y="111.9125"
textLength="2.2024" font-size="1.3333" lengthAdjust="spacingAndGlyphs"
text-anchor="middle" opacity="0" stroke-opacity="0">R6</text>
</g>
<g class="stroked-text"><desc>R6</desc>
<path d="M105.7498 111.5792
L105.2736 111.9125
" />
<path d="M105.7498 112.1506
L104.7498 112.1506
" />
<path d="M104.7498 112.1506
L104.7498 111.7696
" />
<path d="M104.7498 111.7696
L104.7974 111.6744
" />
<path d="M104.7974 111.6744
L104.8451 111.6268
" />
<path d="M104.8451 111.6268
L104.9403 111.5792
" />
<path d="M104.9403 111.5792
L105.0832 111.5792
" />
<path d="M105.0832 111.5792
L105.1784 111.6268
" />
<path d="M105.1784 111.6268
L105.2260 111.6744
" />
<path d="M105.2260 111.6744
L105.2736 111.7696
" />
<path d="M105.2736 111.7696
L105.2736 112.1506
" />
<path d="M104.7498 110.7220
L104.7498 110.9125
" />
<path d="M104.7498 110.9125
L104.7974 111.0077
" />
<path d="M104.7974 111.0077
L104.8451 111.0554
" />
<path d="M104.8451 111.0554
L104.9879 111.1506
" />
<path d="M104.9879 111.1506
L105.1784 111.1982
" />
<path d="M105.1784 111.1982
L105.5593 111.1982
" />
<path d="M105.5593 111.1982
L105.6546 111.1506
" />
<path d="M105.6546 111.1506
L105.7022 111.1030
" />
<path d="M105.7022 111.1030
L105.7498 111.0077
" />
<path d="M105.7498 111.0077
L105.7498 110.8173
" />
<path d="M105.7498 110.8173
L105.7022 110.7220
" />
<path d="M105.7022 110.7220
L105.6546 110.6744
" />
<path d="M105.6546 110.6744
L105.5593 110.6268
" />
<path d="M105.5593 110.6268
L105.3212 110.6268
" />
<path d="M105.3212 110.6268
L105.2260 110.6744
" />
<path d="M105.2260 110.6744
L105.1784 110.7220
" />
<path d="M105.1784 110.7220
L105.1308 110.8173
" />
<path d="M105.1308 110.8173
L105.1308 111.0077
" />
<path d="M105.1308 111.0077
L105.1784 111.1030
" />
<path d="M105.1784 111.1030
L105.2260 111.1506
" />
<path d="M105.2260 111.1506
L105.3212 111.1982
" />
</g><g transform="rotate(-90.000000 108.5750 116.6125)">
<text x="108.5750" y="117.1125"
textLength="2.2024" font-size="1.3333" lengthAdjust="spacingAndGlyphs"
text-anchor="middle" opacity="0" stroke-opacity="0">R8</text>
</g>
<g class="stroked-text"><desc>R8</desc>
<path d="M109.0298 116.7792
L108.5536 117.1125
" />
<path d="M109.0298 117.3506
L108.0298 117.3506
" />
<path d="M108.0298 117.3506
L108.0298 116.9696
" />
<path d="M108.0298 116.9696
L108.0774 116.8744
" />
<path d="M108.0774 116.8744
L108.1251 116.8268
" />
<path d="M108.1251 116.8268
L108.2203 116.7792
" />
<path d="M108.2203 116.7792
L108.3632 116.7792
" />
<path d="M108.3632 116.7792
L108.4584 116.8268
" />
<path d="M108.4584 116.8268
L108.5060 116.8744
" />
<path d="M108.5060 116.8744
L108.5536 116.9696
" />
<path d="M108.5536 116.9696
L108.5536 117.3506
" />
<path d="M108.4584 116.2077
L108.4108 116.3030
" />
<path d="M108.4108 116.3030
L108.3632 116.3506
" />
<path d="M108.3632 116.3506
L108.2679 116.3982
" />
<path d="M108.2679 116.3982
L108.2203 116.3982
" />
<path d="M108.2203 116.3982
L108.1251 116.3506
" />
<path d="M108.1251 116.3506
L108.0774 116.3030
" />
<path d="M108.0774 116.3030
L108.0298 116.2077
" />
<path d="M108.0298 116.2077
L108.0298 116.0173
" />
<path d="M108.0298 116.0173
L108.0774 115.9220
" />
<path d="M108.0774 115.9220
L108.1251 115.8744
" />
<path d="M108.1251 115.8744
L108.2203 115.8268
" />
<path d="M108.2203 115.8268
L108.2679 115.8268
" />
<path d="M108.2679 115.8268
L108.3632 115.8744
" />
<path d="M108.3632 115.8744
L108.4108 115.9220
" />
<path d="M108.4108 115.9220
L108.4584 116.0173
" />
<path d="M108.4584 116.0173
L108.4584 116.2077
" />
<path d="M108.4584 116.2077
L108.5060 116.3030
" />
<path d="M108.5060 116.3030
L108.5536 116.3506
" />
<path d="M108.5536 116.3506
L108.6489 116.3982
" />
<path d="M108.6489 116.3982
L108.8393 116.3982
" />
<path d="M108.8393 116.3982
L108.9346 116.3506
" />
<path d="M108.9346 116.3506
L108.9822 116.3030
" />
<path d="M108.9822 116.3030
L109.0298 116.2077
" />
<path d="M109.0298 116.2077
L109.0298 116.0173
" />
<path d="M109.0298 116.0173
L108.9822 115.9220
" />
<path d="M108.9822 115.9220
L108.9346 115.8744
" />
<path d="M108.9346 115.8744
L108.8393 115.8268
" />
<path d="M108.8393 115.8268
L108.6489 115.8268
" />
<path d="M108.6489 115.8268
L108.5536 115.8744
" />
<path d="M108.5536 115.8744
L108.5060 115.9220
" />
<path d="M108.5060 115.9220
L108.4584 116.0173
" />
</g><text x="117.5875" y="115.8200"
textLength="2.2024" font-size="1.3333" lengthAdjust="spacingAndGlyphs"
text-anchor="middle" opacity="0" stroke-opacity="0">R3</text>
<g class="stroked-text"><desc>R3</desc>
<path d="M117.4208 115.7748
L117.0875 115.2986
" />
<path d="M116.8494 115.7748
L116.8494 114.7748
" />
<path d="M116.8494 114.7748
L117.2304 114.7748
" />
<path d="M117.2304 114.7748
L117.3256 114.8224
" />
<path d="M117.3256 114.8224
L117.3732 114.8701
" />
<path d="M117.3732 114.8701
L117.4208 114.9653
" />
<path d="M117.4208 114.9653
L117.4208 115.1082
" />
<path d="M117.4208 115.1082
L117.3732 115.2034
" />
<path d="M117.3732 115.2034
L117.3256 115.2510
" />
<path d="M117.3256 115.2510
L117.2304 115.2986
" />
<path d="M117.2304 115.2986
L116.8494 115.2986
" />
<path d="M117.7542 114.7748
L118.3732 114.7748
" />
<path d="M118.3732 114.7748
L118.0399 115.1558
" />
<path d="M118.0399 115.1558
L118.1827 115.1558
" />
<path d="M118.1827 115.1558
L118.2780 115.2034
" />
<path d="M118.2780 115.2034
L118.3256 115.2510
" />
<path d="M118.3256 115.2510
L118.3732 115.3462
" />
<path d="M118.3732 115.3462
L118.3732 115.5843
" />
<path d="M118.3732 115.5843
L118.3256 115.6796
" />
<path d="M118.3256 115.6796
L118.2780 115.7272
" />
<path d="M118.2780 115.7272
L118.1827 115.7748
" />
<path d="M118.1827 115.7748
L117.8970 115.7748
" />
<path d="M117.8970 115.7748
L117.8018 115.7272
" />
<path d="M117.8018 115.7272
L117.7542 115.6796
" />
</g><text x="120.6500" y="109.8800"
textLength="1.9643" font-size="1.3333" lengthAdjust="spacingAndGlyphs"
text-anchor="middle" opacity="0" stroke-opacity="0">J8</text>
<g class="stroked-text"><desc>J8</desc>
<path d="M120.3167 108.8348
L120.3167 109.5491
" />
<path d="M120.3167 109.5491
L120.2690 109.6920
" />
<path d="M120.2690 109.6920
L120.1738 109.7872
" />
<path d="M120.1738 109.7872
L120.0310 109.8348
" />
<path d="M120.0310 109.8348
L119.9357 109.8348
" />
<path d="M120.9357 109.2634
L120.8405 109.2158
" />
<path d="M120.8405 109.2158
L120.7929 109.1682
" />
<path d="M120.7929 109.1682
L120.7452 109.0729
" />
<path d="M120.7452 109.0729
L120.7452 109.0253
" />
<path d="M120.7452 109.0253
L120.7929 108.9301
" />
<path d="M120.7929 108.9301
L120.8405 108.8824
" />
<path d="M120.8405 108.8824
L120.9357 108.8348
" />
<path d="M120.9357 108.8348
L121.1262 108.8348
" />
<path d="M121.1262 108.8348
L121.2214 108.8824
" />
<path d="M121.2214 108.8824
L121.2690 108.9301
" />
<path d="M121.2690 108.9301
L121.3167 109.0253
" />
<path d="M121.3167 109.0253
L121.3167 109.0729
" />
<path d="M121.3167 109.0729
L121.2690 109.1682
" />
<path d="M121.2690 109.1682
L121.2214 109.2158
" />
<path d="M121.2214 109.2158
L121.1262 109.2634
" />
<path d="M121.1262 109.2634
L120.9357 109.2634
" />
<path d="M120.9357 109.2634
L120.8405 109.3110
" />
<path d="M120.8405 109.3110
L120.7929 109.3586
" />
<path d="M120.7929 109.3586
L120.7452 109.4539
" />
<path d="M120.7452 109.4539
L120.7452 109.6443
" />
<path d="M120.7452 109.6443
L120.7929 109.7396
" />
<path d="M120.7929 109.7396
L120.8405 109.7872
" />
<path d="M120.8405 109.7872
L120.9357 109.8348
" />
<path d="M120.9357 109.8348
L121.1262 109.8348
" />
<path d="M121.1262 109.8348
L121.2214 109.7872
" />
<path d="M121.2214 109.7872
L121.2690 109.7396
" />
<path d="M121.2690 109.7396
L121.3167 109.6443
" />
<path d="M121.3167 109.6443
L121.3167 109.4539
" />
<path d="M121.3167 109.4539
L121.2690 109.3586
" />
<path d="M121.2690 109.3586
L121.2214 109.3110
" />
<path d="M121.2214 109.3110
L121.1262 109.2634
" />
</g><g transform="rotate(-90.000000 117.0000 104.1400)">
<text x="117.0000" y="104.6400"
textLength="2.2024" font-size="1.3333" lengthAdjust="spacingAndGlyphs"
text-anchor="middle" opacity="0" stroke-opacity="0">R5</text>
</g>
<g class="stroked-text"><desc>R5</desc>
<path d="M117.4548 104.3067
L116.9786 104.6400
" />
<path d="M117.4548 104.8781
L116.4548 104.8781
" />
<path d="M116.4548 104.8781
L116.4548 104.4971
" />
<path d="M116.4548 104.4971
L116.5024 104.4019
" />
<path d="M116.5024 104.4019
L116.5501 104.3543
" />
<path d="M116.5501 104.3543
L116.6453 104.3067
" />
<path d="M116.6453 104.3067
L116.7882 104.3067
" />
<path d="M116.7882 104.3067
L116.8834 104.3543
" />
<path d="M116.8834 104.3543
L116.9310 104.4019
" />
<path d="M116.9310 104.4019
L116.9786 104.4971
" />
<path d="M116.9786 104.4971
L116.9786 104.8781
" />
<path d="M116.4548 103.4019
L116.4548 103.8781
" />
<path d="M116.4548 103.8781
L116.9310 103.9257
" />
<path d="M116.9310 103.9257
L116.8834 103.8781
" />
<path d="M116.8834 103.8781
L116.8358 103.7829
" />
<path d="M116.8358 103.7829
L116.8358 103.5448
" />
<path d="M116.8358 103.5448
L116.8834 103.4495
" />
<path d="M116.8834 103.4495
L116.9310 103.4019
" />
<path d="M116.9310 103.4019
L117.0262 103.3543
" />
<path d="M117.0262 103.3543
L117.2643 103.3543
" />
<path d="M117.2643 103.3543
L117.3596 103.4019
" />
<path d="M117.3596 103.4019
L117.4072 103.4495
" />
<path d="M117.4072 103.4495
L117.4548 103.5448
" />
<path d="M117.4548 103.5448
L117.4548 103.7829
" />
<path d="M117.4548 103.7829
L117.4072 103.8781
" />
<path d="M117.4072 103.8781
L117.3596 103.9257
" />
</g><g transform="rotate(-90.000000 110.3300 100.3300)">
<text x="110.3300" y="100.8300"
textLength="1.9643" font-size="1.3333" lengthAdjust="spacingAndGlyphs"
text-anchor="middle" opacity="0" stroke-opacity="0">J5</text>
</g>
<g class="stroked-text"><desc>J5</desc>
<path d="M109.7848 100.6633
L110.4991 100.6633
" />
<path d="M110.4991 100.6633
L110.6420 100.7110
" />
<path d="M110.6420 100.7110
L110.7372 100.8062
" />
<path d="M110.7372 100.8062
L110.7848 100.9490
" />
<path d="M110.7848 100.9490
L110.7848 101.0443
" />
<path d="M109.7848 99.7110
L109.7848 100.1871
" />
<path d="M109.7848 100.1871
L110.2610 100.2348
" />
<path d="M110.2610 100.2348
L110.2134 100.1871
" />
<path d="M110.2134 100.1871
L110.1658 100.0919
" />
<path d="M110.1658 100.0919
L110.1658 99.8538
" />
<path d="M110.1658 99.8538
L110.2134 99.7586
" />
<path d="M110.2134 99.7586
L110.2610 99.7110
" />
<path d="M110.2610 99.7110
L110.3562 99.6633
" />
<path d="M110.3562 99.6633
L110.5943 99.6633
" />
<path d="M110.5943 99.6633
L110.6896 99.7110
" />
<path d="M110.6896 99.7110
L110.7372 99.7586
" />
<path d="M110.7372 99.7586
L110.7848 99.8538
" />
<path d="M110.7848 99.8538
L110.7848 100.0919
" />
<path d="M110.7848 100.0919
L110.7372 100.1871
" />
<path d="M110.7372 100.1871
L110.6896 100.2348
" />
</g></g>
<g style="fill:none; 
stroke:#000000; stroke-width:0.1200; stroke-opacity:1; 
stroke-linecap:round; stroke-linejoin:round;">
<path d="M112.5075 117.4522
L112.5075 116.9428
" />
<path d="M113.5525 117.4522
L113.5525 116.9428
" />
<path d="M118.8575 107.3378
L118.8575 107.8472
" />
<path d="M119.9025 107.3378
L119.9025 107.8472
" />
<path d="M109.1100 119.2700
L109.1100 122.0300
" />
<path d="M111.7600 119.2700
L109.1100 119.2700
" />
<path d="M111.7600 119.2700
L111.7600 122.0300
" />
<path d="M111.7600 122.0300
L109.1100 122.0300
" />
<path d="M113.0300 119.2700
L114.4100 119.2700
" />
<path d="M114.4100 119.2700
L114.4100 120.6500
" />
<path d="M114.1900 98.9500
L115.5700 98.9500
" />
<path d="M114.1900 100.3300
L114.1900 98.9500
" />
<path d="M114.1900 101.6000
L114.1900 101.7100
" />
<path d="M114.1900 101.6000
L116.9500 101.6000
" />
<path d="M114.1900 101.7100
L116.9500 101.7100
" />
<path d="M116.9500 101.6000
L116.9500 101.7100
" />
<path d="M105.3000 119.2700
L106.6800 119.2700
" />
<path d="M105.3000 120.6500
L105.3000 119.2700
" />
<path d="M105.3000 121.9200
L105.3000 122.0300
" />
<path d="M105.3000 121.9200
L108.0600 121.9200
" />
<path d="M105.3000 122.0300
L108.0600 122.0300
" />
<path d="M108.0600 121.9200
L108.0600 122.0300
" />
<path d="M101.4900 114.1900
L102.8700 114.1900
" />
<path d="M101.4900 115.5700
L101.4900 114.1900
" />
<path d="M101.4900 116.8400
L101.4900 116.9500
" />
<path d="M101.4900 116.8400
L104.2500 116.8400
" />
<path d="M101.4900 116.9500
L104.2500 116.9500
" />
<path d="M104.2500 116.8400
L104.2500 116.9500
" />
<path d="M115.4600 119.2700
L116.8400 119.2700
" />
<path d="M115.4600 120.6500
L115.4600 119.2700
" />
<path d="M115.4600 121.9200
L115.4600 122.0300
" />
<path d="M115.4600 121.9200
L118.2200 121.9200
" />
<path d="M115.4600 122.0300
L118.2200 122.0300
" />
<path d="M118.2200 121.9200
L118.2200 122.0300
" />
<path d="M110.3800 98.9500
L111.7600 98.9500
" />
<path d="M110.3800 100.3300
L110.3800 98.9500
" />
<path d="M110.3800 101.6000
L110.3800 101.7100
" />
<path d="M110.3800 101.6000
L113.1400 101.6000
" />
<path d="M110.3800 101.7100
L113.1400 101.7100
" />
<path d="M113.1400 101.6000
L113.1400 101.7100
" />
<path d="M116.7275 112.3422
L116.7275 111.8328
" />
<path d="M117.7725 112.3422
L117.7725 111.8328
" />
<path d="M113.1328 112.5075
L113.6422 112.5075
" />
<path d="M113.1328 113.5525
L113.6422 113.5525
" />
<path d="M106.2025 111.6672
L106.2025 111.1578
" />
<path d="M107.2475 111.6672
L107.2475 111.1578
" />
<path d="M109.5025 116.3578
L109.5025 116.8672
" />
<path d="M110.5475 116.3578
L110.5475 116.8672
" />
<path d="M117.3328 116.2275
L117.8422 116.2275
" />
<path d="M117.3328 117.2725
L117.8422 117.2725
" />
<path d="M119.2700 110.3800
L120.6500 110.3800
" />
<path d="M119.2700 111.7600
L119.2700 110.3800
" />
<path d="M119.2700 113.0300
L119.2700 113.1400
" />
<path d="M119.2700 113.0300
L122.0300 113.0300
" />
<path d="M119.2700 113.1400
L122.0300 113.1400
" />
<path d="M122.0300 113.0300
L122.0300 113.1400
" />
<path d="M115.0475 103.8853
L115.0475 104.3947
" />
<path d="M116.0925 103.8853
L116.0925 104.3947
" />
<path d="M104.0300 98.9500
L104.0300 101.7100
" />
<path d="M106.6800 98.9500
L104.0300 98.9500
" />
<path d="M106.6800 98.9500
L106.6800 101.7100
" />
<path d="M106.6800 101.7100
L104.0300 101.7100
" />
<path d="M107.9500 98.9500
L109.3300 98.9500
" />
<path d="M109.3300 98.9500
L109.3300 100.3300
" />
</g> 
</svg>
