<?xml version="1.0" standalone="no"?>
 <!DOCTYPE svg PUBLIC "-//W3C//DTD SVG 1.1//EN" 
 "http://www.w3.org/Graphics/SVG/1.1/DTD/svg11.dtd"> 
<svg
  xmlns:svg="http://www.w3.org/2000/svg"
  xmlns="http://www.w3.org/2000/svg"
  xmlns:xlink="http://www.w3.org/1999/xlink"
  version="1.1"
  width="297.0022mm" height="210.0072mm" viewBox="0.0000 0.0000 297.0022 210.0072">
<title>SVG Image created as EggPCB-PTH-drl_map.svg date 2025/07/02 10:20:03 </title>
  <desc>Image generated by PCBNEW </desc>
<g style="fill:#000000; fill-opacity:1.0000;stroke:#000000; stroke-opacity:1.0000;
stroke-linecap:round; stroke-linejoin:round;"
 transform="translate(0 0) scale(1 1)">
<path style="fill:none; 
stroke:#000000; stroke-width:0.1500; stroke-opacity:1; 
stroke-linecap:round; stroke-linejoin:round;fill:none"
d="M 167.2511,28.3897
177.7511,44.5147
197.2511,52.0147
197.4011,65.2147
176.7761,74.2147
170.0261,97.6147
117.3011,97.7647
114.9761,77.2897
99.6011,65.2897
99.6011,52.0147
120.9761,42.7147
125.7761,28.2397
Z" /> 
</g>
<g style="fill:none; 
stroke:#000000; stroke-width:0.3000; stroke-opacity:1; 
stroke-linecap:round; stroke-linejoin:round;">
<path d="M153.5261 93.6247
L153.5561 93.6547
" />
<path d="M153.5561 93.6247
L153.5261 93.6547
" />
<circle cx="137.5211" cy="56.4397" r="1.2000" /> 
<circle cx="137.5211" cy="69.9397" r="1.2000" /> 
<circle cx="160.3811" cy="56.4397" r="1.2000" /> 
<circle cx="160.3811" cy="69.9397" r="1.2000" /> 
<path d="M123.0611 76.8997
L123.0611 79.8997
" />
<path d="M121.5611 78.3997
L124.5611 78.3997
" />
<path d="M130.6811 31.1797
L130.6811 34.1797
" />
<path d="M129.1811 32.6797
L132.1811 32.6797
" />
<path d="M134.4911 92.1397
L134.4911 95.1397
" />
<path d="M132.9911 93.6397
L135.9911 93.6397
" />
<path d="M138.3011 31.1797
L138.3011 34.1797
" />
<path d="M136.8011 32.6797
L139.8011 32.6797
" />
<path d="M145.9211 92.1397
L145.9211 95.1397
" />
<path d="M144.4211 93.6397
L147.4211 93.6397
" />
<path d="M149.7311 31.1797
L149.7311 34.1797
" />
<path d="M148.2311 32.6797
L151.2311 32.6797
" />
<path d="M161.1611 31.1797
L161.1611 34.1797
" />
<path d="M159.6611 32.6797
L162.6611 32.6797
" />
<path d="M164.9711 92.1397
L164.9711 95.1397
" />
<path d="M163.4711 93.6397
L166.4711 93.6397
" />
</g>
<g style="fill:none; 
stroke:#000000; stroke-width:0.2000; stroke-opacity:1; 
stroke-linecap:round; stroke-linejoin:round;">
<text x="101.5261" y="101.0397"
textLength="14.8667" font-size="2.6667" lengthAdjust="spacingAndGlyphs"
text-anchor="start" opacity="0" stroke-opacity="0">Drill Map:</text>
<g class="stroked-text"><desc>Drill Map:</desc>
<path d="M102.1339 100.9545
L102.1339 98.9545
" />
<path d="M102.1339 98.9545
L102.6101 98.9545
" />
<path d="M102.6101 98.9545
L102.8958 99.0497
" />
<path d="M102.8958 99.0497
L103.0862 99.2402
" />
<path d="M103.0862 99.2402
L103.1815 99.4307
" />
<path d="M103.1815 99.4307
L103.2767 99.8116
" />
<path d="M103.2767 99.8116
L103.2767 100.0974
" />
<path d="M103.2767 100.0974
L103.1815 100.4783
" />
<path d="M103.1815 100.4783
L103.0862 100.6688
" />
<path d="M103.0862 100.6688
L102.8958 100.8593
" />
<path d="M102.8958 100.8593
L102.6101 100.9545
" />
<path d="M102.6101 100.9545
L102.1339 100.9545
" />
<path d="M104.1339 100.9545
L104.1339 99.6212
" />
<path d="M104.1339 100.0021
L104.2291 99.8116
" />
<path d="M104.2291 99.8116
L104.3243 99.7164
" />
<path d="M104.3243 99.7164
L104.5148 99.6212
" />
<path d="M104.5148 99.6212
L104.7053 99.6212
" />
<path d="M105.3720 100.9545
L105.3720 99.6212
" />
<path d="M105.3720 98.9545
L105.2767 99.0497
" />
<path d="M105.2767 99.0497
L105.3720 99.1450
" />
<path d="M105.3720 99.1450
L105.4672 99.0497
" />
<path d="M105.4672 99.0497
L105.3720 98.9545
" />
<path d="M105.3720 98.9545
L105.3720 99.1450
" />
<path d="M106.6101 100.9545
L106.4196 100.8593
" />
<path d="M106.4196 100.8593
L106.3243 100.6688
" />
<path d="M106.3243 100.6688
L106.3243 98.9545
" />
<path d="M107.6577 100.9545
L107.4672 100.8593
" />
<path d="M107.4672 100.8593
L107.3720 100.6688
" />
<path d="M107.3720 100.6688
L107.3720 98.9545
" />
<path d="M109.9434 100.9545
L109.9434 98.9545
" />
<path d="M109.9434 98.9545
L110.6101 100.3831
" />
<path d="M110.6101 100.3831
L111.2767 98.9545
" />
<path d="M111.2767 98.9545
L111.2767 100.9545
" />
<path d="M113.0863 100.9545
L113.0863 99.9069
" />
<path d="M113.0863 99.9069
L112.9910 99.7164
" />
<path d="M112.9910 99.7164
L112.8005 99.6212
" />
<path d="M112.8005 99.6212
L112.4196 99.6212
" />
<path d="M112.4196 99.6212
L112.2291 99.7164
" />
<path d="M113.0863 100.8593
L112.8958 100.9545
" />
<path d="M112.8958 100.9545
L112.4196 100.9545
" />
<path d="M112.4196 100.9545
L112.2291 100.8593
" />
<path d="M112.2291 100.8593
L112.1339 100.6688
" />
<path d="M112.1339 100.6688
L112.1339 100.4783
" />
<path d="M112.1339 100.4783
L112.2291 100.2878
" />
<path d="M112.2291 100.2878
L112.4196 100.1926
" />
<path d="M112.4196 100.1926
L112.8958 100.1926
" />
<path d="M112.8958 100.1926
L113.0863 100.0974
" />
<path d="M114.0386 99.6212
L114.0386 101.6212
" />
<path d="M114.0386 99.7164
L114.2291 99.6212
" />
<path d="M114.2291 99.6212
L114.6101 99.6212
" />
<path d="M114.6101 99.6212
L114.8005 99.7164
" />
<path d="M114.8005 99.7164
L114.8958 99.8116
" />
<path d="M114.8958 99.8116
L114.9910 100.0021
" />
<path d="M114.9910 100.0021
L114.9910 100.5735
" />
<path d="M114.9910 100.5735
L114.8958 100.7640
" />
<path d="M114.8958 100.7640
L114.8005 100.8593
" />
<path d="M114.8005 100.8593
L114.6101 100.9545
" />
<path d="M114.6101 100.9545
L114.2291 100.9545
" />
<path d="M114.2291 100.9545
L114.0386 100.8593
" />
<path d="M115.8482 100.7640
L115.9434 100.8593
" />
<path d="M115.9434 100.8593
L115.8482 100.9545
" />
<path d="M115.8482 100.9545
L115.7529 100.8593
" />
<path d="M115.7529 100.8593
L115.8482 100.7640
" />
<path d="M115.8482 100.7640
L115.8482 100.9545
" />
<path d="M115.8482 99.7164
L115.9434 99.8116
" />
<path d="M115.9434 99.8116
L115.8482 99.9069
" />
<path d="M115.8482 99.9069
L115.7529 99.8116
" />
<path d="M115.7529 99.8116
L115.8482 99.7164
" />
<path d="M115.8482 99.7164
L115.8482 99.9069
" />
</g></g>
<g style="fill:none; 
stroke:#000000; stroke-width:0.3000; stroke-opacity:1; 
stroke-linecap:round; stroke-linejoin:round;">
<path d="M99.4961 104.2247
L99.5261 104.2547
" />
<path d="M99.5261 104.2247
L99.4961 104.2547
" />
</g>
<g style="fill:none; 
stroke:#000000; stroke-width:0.2000; stroke-opacity:1; 
stroke-linecap:round; stroke-linejoin:round;">
<text x="101.5261" y="105.2397"
textLength="45.2477" font-size="2.6667" lengthAdjust="spacingAndGlyphs"
text-anchor="start" opacity="0" stroke-opacity="0">0.010mm / 0.0004" (1 hole)</text>
<g class="stroked-text"><desc>0.010mm / 0.0004" (1 hole)</desc>
<path d="M102.5148 103.1545
L102.7053 103.1545
" />
<path d="M102.7053 103.1545
L102.8958 103.2497
" />
<path d="M102.8958 103.2497
L102.9910 103.3450
" />
<path d="M102.9910 103.3450
L103.0862 103.5355
" />
<path d="M103.0862 103.5355
L103.1815 103.9164
" />
<path d="M103.1815 103.9164
L103.1815 104.3926
" />
<path d="M103.1815 104.3926
L103.0862 104.7735
" />
<path d="M103.0862 104.7735
L102.9910 104.9640
" />
<path d="M102.9910 104.9640
L102.8958 105.0593
" />
<path d="M102.8958 105.0593
L102.7053 105.1545
" />
<path d="M102.7053 105.1545
L102.5148 105.1545
" />
<path d="M102.5148 105.1545
L102.3243 105.0593
" />
<path d="M102.3243 105.0593
L102.2291 104.9640
" />
<path d="M102.2291 104.9640
L102.1339 104.7735
" />
<path d="M102.1339 104.7735
L102.0386 104.3926
" />
<path d="M102.0386 104.3926
L102.0386 103.9164
" />
<path d="M102.0386 103.9164
L102.1339 103.5355
" />
<path d="M102.1339 103.5355
L102.2291 103.3450
" />
<path d="M102.2291 103.3450
L102.3243 103.2497
" />
<path d="M102.3243 103.2497
L102.5148 103.1545
" />
<path d="M104.0386 104.9640
L104.1339 105.0593
" />
<path d="M104.1339 105.0593
L104.0386 105.1545
" />
<path d="M104.0386 105.1545
L103.9434 105.0593
" />
<path d="M103.9434 105.0593
L104.0386 104.9640
" />
<path d="M104.0386 104.9640
L104.0386 105.1545
" />
<path d="M105.3720 103.1545
L105.5624 103.1545
" />
<path d="M105.5624 103.1545
L105.7529 103.2497
" />
<path d="M105.7529 103.2497
L105.8482 103.3450
" />
<path d="M105.8482 103.3450
L105.9434 103.5355
" />
<path d="M105.9434 103.5355
L106.0386 103.9164
" />
<path d="M106.0386 103.9164
L106.0386 104.3926
" />
<path d="M106.0386 104.3926
L105.9434 104.7735
" />
<path d="M105.9434 104.7735
L105.8482 104.9640
" />
<path d="M105.8482 104.9640
L105.7529 105.0593
" />
<path d="M105.7529 105.0593
L105.5624 105.1545
" />
<path d="M105.5624 105.1545
L105.3720 105.1545
" />
<path d="M105.3720 105.1545
L105.1815 105.0593
" />
<path d="M105.1815 105.0593
L105.0862 104.9640
" />
<path d="M105.0862 104.9640
L104.9910 104.7735
" />
<path d="M104.9910 104.7735
L104.8958 104.3926
" />
<path d="M104.8958 104.3926
L104.8958 103.9164
" />
<path d="M104.8958 103.9164
L104.9910 103.5355
" />
<path d="M104.9910 103.5355
L105.0862 103.3450
" />
<path d="M105.0862 103.3450
L105.1815 103.2497
" />
<path d="M105.1815 103.2497
L105.3720 103.1545
" />
<path d="M107.9434 105.1545
L106.8005 105.1545
" />
<path d="M107.3720 105.1545
L107.3720 103.1545
" />
<path d="M107.3720 103.1545
L107.1815 103.4402
" />
<path d="M107.1815 103.4402
L106.9910 103.6307
" />
<path d="M106.9910 103.6307
L106.8005 103.7259
" />
<path d="M109.1815 103.1545
L109.3720 103.1545
" />
<path d="M109.3720 103.1545
L109.5624 103.2497
" />
<path d="M109.5624 103.2497
L109.6577 103.3450
" />
<path d="M109.6577 103.3450
L109.7529 103.5355
" />
<path d="M109.7529 103.5355
L109.8482 103.9164
" />
<path d="M109.8482 103.9164
L109.8482 104.3926
" />
<path d="M109.8482 104.3926
L109.7529 104.7735
" />
<path d="M109.7529 104.7735
L109.6577 104.9640
" />
<path d="M109.6577 104.9640
L109.5624 105.0593
" />
<path d="M109.5624 105.0593
L109.3720 105.1545
" />
<path d="M109.3720 105.1545
L109.1815 105.1545
" />
<path d="M109.1815 105.1545
L108.9910 105.0593
" />
<path d="M108.9910 105.0593
L108.8958 104.9640
" />
<path d="M108.8958 104.9640
L108.8005 104.7735
" />
<path d="M108.8005 104.7735
L108.7053 104.3926
" />
<path d="M108.7053 104.3926
L108.7053 103.9164
" />
<path d="M108.7053 103.9164
L108.8005 103.5355
" />
<path d="M108.8005 103.5355
L108.8958 103.3450
" />
<path d="M108.8958 103.3450
L108.9910 103.2497
" />
<path d="M108.9910 103.2497
L109.1815 103.1545
" />
<path d="M110.7053 105.1545
L110.7053 103.8212
" />
<path d="M110.7053 104.0116
L110.8005 103.9164
" />
<path d="M110.8005 103.9164
L110.9910 103.8212
" />
<path d="M110.9910 103.8212
L111.2767 103.8212
" />
<path d="M111.2767 103.8212
L111.4672 103.9164
" />
<path d="M111.4672 103.9164
L111.5624 104.1069
" />
<path d="M111.5624 104.1069
L111.5624 105.1545
" />
<path d="M111.5624 104.1069
L111.6577 103.9164
" />
<path d="M111.6577 103.9164
L111.8482 103.8212
" />
<path d="M111.8482 103.8212
L112.1339 103.8212
" />
<path d="M112.1339 103.8212
L112.3243 103.9164
" />
<path d="M112.3243 103.9164
L112.4196 104.1069
" />
<path d="M112.4196 104.1069
L112.4196 105.1545
" />
<path d="M113.3720 105.1545
L113.3720 103.8212
" />
<path d="M113.3720 104.0116
L113.4672 103.9164
" />
<path d="M113.4672 103.9164
L113.6577 103.8212
" />
<path d="M113.6577 103.8212
L113.9434 103.8212
" />
<path d="M113.9434 103.8212
L114.1339 103.9164
" />
<path d="M114.1339 103.9164
L114.2291 104.1069
" />
<path d="M114.2291 104.1069
L114.2291 105.1545
" />
<path d="M114.2291 104.1069
L114.3243 103.9164
" />
<path d="M114.3243 103.9164
L114.5148 103.8212
" />
<path d="M114.5148 103.8212
L114.8005 103.8212
" />
<path d="M114.8005 103.8212
L114.9910 103.9164
" />
<path d="M114.9910 103.9164
L115.0863 104.1069
" />
<path d="M115.0863 104.1069
L115.0863 105.1545
" />
<path d="M118.9910 103.0593
L117.2767 105.6307
" />
<path d="M121.5624 103.1545
L121.7529 103.1545
" />
<path d="M121.7529 103.1545
L121.9434 103.2497
" />
<path d="M121.9434 103.2497
L122.0386 103.3450
" />
<path d="M122.0386 103.3450
L122.1339 103.5355
" />
<path d="M122.1339 103.5355
L122.2291 103.9164
" />
<path d="M122.2291 103.9164
L122.2291 104.3926
" />
<path d="M122.2291 104.3926
L122.1339 104.7735
" />
<path d="M122.1339 104.7735
L122.0386 104.9640
" />
<path d="M122.0386 104.9640
L121.9434 105.0593
" />
<path d="M121.9434 105.0593
L121.7529 105.1545
" />
<path d="M121.7529 105.1545
L121.5624 105.1545
" />
<path d="M121.5624 105.1545
L121.3720 105.0593
" />
<path d="M121.3720 105.0593
L121.2767 104.9640
" />
<path d="M121.2767 104.9640
L121.1815 104.7735
" />
<path d="M121.1815 104.7735
L121.0863 104.3926
" />
<path d="M121.0863 104.3926
L121.0863 103.9164
" />
<path d="M121.0863 103.9164
L121.1815 103.5355
" />
<path d="M121.1815 103.5355
L121.2767 103.3450
" />
<path d="M121.2767 103.3450
L121.3720 103.2497
" />
<path d="M121.3720 103.2497
L121.5624 103.1545
" />
<path d="M123.0863 104.9640
L123.1815 105.0593
" />
<path d="M123.1815 105.0593
L123.0863 105.1545
" />
<path d="M123.0863 105.1545
L122.9910 105.0593
" />
<path d="M122.9910 105.0593
L123.0863 104.9640
" />
<path d="M123.0863 104.9640
L123.0863 105.1545
" />
<path d="M124.4196 103.1545
L124.6101 103.1545
" />
<path d="M124.6101 103.1545
L124.8005 103.2497
" />
<path d="M124.8005 103.2497
L124.8958 103.3450
" />
<path d="M124.8958 103.3450
L124.9910 103.5355
" />
<path d="M124.9910 103.5355
L125.0863 103.9164
" />
<path d="M125.0863 103.9164
L125.0863 104.3926
" />
<path d="M125.0863 104.3926
L124.9910 104.7735
" />
<path d="M124.9910 104.7735
L124.8958 104.9640
" />
<path d="M124.8958 104.9640
L124.8005 105.0593
" />
<path d="M124.8005 105.0593
L124.6101 105.1545
" />
<path d="M124.6101 105.1545
L124.4196 105.1545
" />
<path d="M124.4196 105.1545
L124.2291 105.0593
" />
<path d="M124.2291 105.0593
L124.1339 104.9640
" />
<path d="M124.1339 104.9640
L124.0386 104.7735
" />
<path d="M124.0386 104.7735
L123.9434 104.3926
" />
<path d="M123.9434 104.3926
L123.9434 103.9164
" />
<path d="M123.9434 103.9164
L124.0386 103.5355
" />
<path d="M124.0386 103.5355
L124.1339 103.3450
" />
<path d="M124.1339 103.3450
L124.2291 103.2497
" />
<path d="M124.2291 103.2497
L124.4196 103.1545
" />
<path d="M126.3244 103.1545
L126.5148 103.1545
" />
<path d="M126.5148 103.1545
L126.7053 103.2497
" />
<path d="M126.7053 103.2497
L126.8005 103.3450
" />
<path d="M126.8005 103.3450
L126.8958 103.5355
" />
<path d="M126.8958 103.5355
L126.9910 103.9164
" />
<path d="M126.9910 103.9164
L126.9910 104.3926
" />
<path d="M126.9910 104.3926
L126.8958 104.7735
" />
<path d="M126.8958 104.7735
L126.8005 104.9640
" />
<path d="M126.8005 104.9640
L126.7053 105.0593
" />
<path d="M126.7053 105.0593
L126.5148 105.1545
" />
<path d="M126.5148 105.1545
L126.3244 105.1545
" />
<path d="M126.3244 105.1545
L126.1339 105.0593
" />
<path d="M126.1339 105.0593
L126.0386 104.9640
" />
<path d="M126.0386 104.9640
L125.9434 104.7735
" />
<path d="M125.9434 104.7735
L125.8482 104.3926
" />
<path d="M125.8482 104.3926
L125.8482 103.9164
" />
<path d="M125.8482 103.9164
L125.9434 103.5355
" />
<path d="M125.9434 103.5355
L126.0386 103.3450
" />
<path d="M126.0386 103.3450
L126.1339 103.2497
" />
<path d="M126.1339 103.2497
L126.3244 103.1545
" />
<path d="M128.2291 103.1545
L128.4196 103.1545
" />
<path d="M128.4196 103.1545
L128.6101 103.2497
" />
<path d="M128.6101 103.2497
L128.7053 103.3450
" />
<path d="M128.7053 103.3450
L128.8005 103.5355
" />
<path d="M128.8005 103.5355
L128.8958 103.9164
" />
<path d="M128.8958 103.9164
L128.8958 104.3926
" />
<path d="M128.8958 104.3926
L128.8005 104.7735
" />
<path d="M128.8005 104.7735
L128.7053 104.9640
" />
<path d="M128.7053 104.9640
L128.6101 105.0593
" />
<path d="M128.6101 105.0593
L128.4196 105.1545
" />
<path d="M128.4196 105.1545
L128.2291 105.1545
" />
<path d="M128.2291 105.1545
L128.0386 105.0593
" />
<path d="M128.0386 105.0593
L127.9434 104.9640
" />
<path d="M127.9434 104.9640
L127.8482 104.7735
" />
<path d="M127.8482 104.7735
L127.7529 104.3926
" />
<path d="M127.7529 104.3926
L127.7529 103.9164
" />
<path d="M127.7529 103.9164
L127.8482 103.5355
" />
<path d="M127.8482 103.5355
L127.9434 103.3450
" />
<path d="M127.9434 103.3450
L128.0386 103.2497
" />
<path d="M128.0386 103.2497
L128.2291 103.1545
" />
<path d="M130.6101 103.8212
L130.6101 105.1545
" />
<path d="M130.1339 103.0593
L129.6577 104.4878
" />
<path d="M129.6577 104.4878
L130.8958 104.4878
" />
<path d="M131.5625 103.1545
L131.5625 103.5355
" />
<path d="M132.3244 103.1545
L132.3244 103.5355
" />
<path d="M135.2767 105.9164
L135.1815 105.8212
" />
<path d="M135.1815 105.8212
L134.9910 105.5355
" />
<path d="M134.9910 105.5355
L134.8958 105.3450
" />
<path d="M134.8958 105.3450
L134.8006 105.0593
" />
<path d="M134.8006 105.0593
L134.7053 104.5831
" />
<path d="M134.7053 104.5831
L134.7053 104.2021
" />
<path d="M134.7053 104.2021
L134.8006 103.7259
" />
<path d="M134.8006 103.7259
L134.8958 103.4402
" />
<path d="M134.8958 103.4402
L134.9910 103.2497
" />
<path d="M134.9910 103.2497
L135.1815 102.9640
" />
<path d="M135.1815 102.9640
L135.2767 102.8688
" />
<path d="M137.0863 105.1545
L135.9434 105.1545
" />
<path d="M136.5148 105.1545
L136.5148 103.1545
" />
<path d="M136.5148 103.1545
L136.3244 103.4402
" />
<path d="M136.3244 103.4402
L136.1339 103.6307
" />
<path d="M136.1339 103.6307
L135.9434 103.7259
" />
<path d="M139.4672 105.1545
L139.4672 103.1545
" />
<path d="M140.3244 105.1545
L140.3244 104.1069
" />
<path d="M140.3244 104.1069
L140.2291 103.9164
" />
<path d="M140.2291 103.9164
L140.0386 103.8212
" />
<path d="M140.0386 103.8212
L139.7529 103.8212
" />
<path d="M139.7529 103.8212
L139.5625 103.9164
" />
<path d="M139.5625 103.9164
L139.4672 104.0116
" />
<path d="M141.5625 105.1545
L141.3720 105.0593
" />
<path d="M141.3720 105.0593
L141.2767 104.9640
" />
<path d="M141.2767 104.9640
L141.1815 104.7735
" />
<path d="M141.1815 104.7735
L141.1815 104.2021
" />
<path d="M141.1815 104.2021
L141.2767 104.0116
" />
<path d="M141.2767 104.0116
L141.3720 103.9164
" />
<path d="M141.3720 103.9164
L141.5625 103.8212
" />
<path d="M141.5625 103.8212
L141.8482 103.8212
" />
<path d="M141.8482 103.8212
L142.0387 103.9164
" />
<path d="M142.0387 103.9164
L142.1339 104.0116
" />
<path d="M142.1339 104.0116
L142.2291 104.2021
" />
<path d="M142.2291 104.2021
L142.2291 104.7735
" />
<path d="M142.2291 104.7735
L142.1339 104.9640
" />
<path d="M142.1339 104.9640
L142.0387 105.0593
" />
<path d="M142.0387 105.0593
L141.8482 105.1545
" />
<path d="M141.8482 105.1545
L141.5625 105.1545
" />
<path d="M143.3720 105.1545
L143.1815 105.0593
" />
<path d="M143.1815 105.0593
L143.0863 104.8688
" />
<path d="M143.0863 104.8688
L143.0863 103.1545
" />
<path d="M144.8958 105.0593
L144.7053 105.1545
" />
<path d="M144.7053 105.1545
L144.3244 105.1545
" />
<path d="M144.3244 105.1545
L144.1339 105.0593
" />
<path d="M144.1339 105.0593
L144.0387 104.8688
" />
<path d="M144.0387 104.8688
L144.0387 104.1069
" />
<path d="M144.0387 104.1069
L144.1339 103.9164
" />
<path d="M144.1339 103.9164
L144.3244 103.8212
" />
<path d="M144.3244 103.8212
L144.7053 103.8212
" />
<path d="M144.7053 103.8212
L144.8958 103.9164
" />
<path d="M144.8958 103.9164
L144.9910 104.1069
" />
<path d="M144.9910 104.1069
L144.9910 104.2974
" />
<path d="M144.9910 104.2974
L144.0387 104.4878
" />
<path d="M145.6577 105.9164
L145.7529 105.8212
" />
<path d="M145.7529 105.8212
L145.9434 105.5355
" />
<path d="M145.9434 105.5355
L146.0387 105.3450
" />
<path d="M146.0387 105.3450
L146.1339 105.0593
" />
<path d="M146.1339 105.0593
L146.2291 104.5831
" />
<path d="M146.2291 104.5831
L146.2291 104.2021
" />
<path d="M146.2291 104.2021
L146.1339 103.7259
" />
<path d="M146.1339 103.7259
L146.0387 103.4402
" />
<path d="M146.0387 103.4402
L145.9434 103.2497
" />
<path d="M145.9434 103.2497
L145.7529 102.9640
" />
<path d="M145.7529 102.9640
L145.6577 102.8688
" />
</g></g>
<g style="fill:none; 
stroke:#000000; stroke-width:0.3000; stroke-opacity:1; 
stroke-linecap:round; stroke-linejoin:round;">
<circle cx="98.5261" cy="106.8797" r="1.0000" /> 
</g>
<g style="fill:none; 
stroke:#000000; stroke-width:0.2000; stroke-opacity:1; 
stroke-linecap:round; stroke-linejoin:round;">
<text x="101.5261" y="107.8797"
textLength="46.8667" font-size="2.6667" lengthAdjust="spacingAndGlyphs"
text-anchor="start" opacity="0" stroke-opacity="0">0.800mm / 0.0315" (4 holes)</text>
<g class="stroked-text"><desc>0.800mm / 0.0315" (4 holes)</desc>
<path d="M102.5148 105.7945
L102.7053 105.7945
" />
<path d="M102.7053 105.7945
L102.8958 105.8897
" />
<path d="M102.8958 105.8897
L102.9910 105.9850
" />
<path d="M102.9910 105.9850
L103.0862 106.1755
" />
<path d="M103.0862 106.1755
L103.1815 106.5564
" />
<path d="M103.1815 106.5564
L103.1815 107.0326
" />
<path d="M103.1815 107.0326
L103.0862 107.4135
" />
<path d="M103.0862 107.4135
L102.9910 107.6040
" />
<path d="M102.9910 107.6040
L102.8958 107.6993
" />
<path d="M102.8958 107.6993
L102.7053 107.7945
" />
<path d="M102.7053 107.7945
L102.5148 107.7945
" />
<path d="M102.5148 107.7945
L102.3243 107.6993
" />
<path d="M102.3243 107.6993
L102.2291 107.6040
" />
<path d="M102.2291 107.6040
L102.1339 107.4135
" />
<path d="M102.1339 107.4135
L102.0386 107.0326
" />
<path d="M102.0386 107.0326
L102.0386 106.5564
" />
<path d="M102.0386 106.5564
L102.1339 106.1755
" />
<path d="M102.1339 106.1755
L102.2291 105.9850
" />
<path d="M102.2291 105.9850
L102.3243 105.8897
" />
<path d="M102.3243 105.8897
L102.5148 105.7945
" />
<path d="M104.0386 107.6040
L104.1339 107.6993
" />
<path d="M104.1339 107.6993
L104.0386 107.7945
" />
<path d="M104.0386 107.7945
L103.9434 107.6993
" />
<path d="M103.9434 107.6993
L104.0386 107.6040
" />
<path d="M104.0386 107.6040
L104.0386 107.7945
" />
<path d="M105.2767 106.6516
L105.0862 106.5564
" />
<path d="M105.0862 106.5564
L104.9910 106.4612
" />
<path d="M104.9910 106.4612
L104.8958 106.2707
" />
<path d="M104.8958 106.2707
L104.8958 106.1755
" />
<path d="M104.8958 106.1755
L104.9910 105.9850
" />
<path d="M104.9910 105.9850
L105.0862 105.8897
" />
<path d="M105.0862 105.8897
L105.2767 105.7945
" />
<path d="M105.2767 105.7945
L105.6577 105.7945
" />
<path d="M105.6577 105.7945
L105.8482 105.8897
" />
<path d="M105.8482 105.8897
L105.9434 105.9850
" />
<path d="M105.9434 105.9850
L106.0386 106.1755
" />
<path d="M106.0386 106.1755
L106.0386 106.2707
" />
<path d="M106.0386 106.2707
L105.9434 106.4612
" />
<path d="M105.9434 106.4612
L105.8482 106.5564
" />
<path d="M105.8482 106.5564
L105.6577 106.6516
" />
<path d="M105.6577 106.6516
L105.2767 106.6516
" />
<path d="M105.2767 106.6516
L105.0862 106.7469
" />
<path d="M105.0862 106.7469
L104.9910 106.8421
" />
<path d="M104.9910 106.8421
L104.8958 107.0326
" />
<path d="M104.8958 107.0326
L104.8958 107.4135
" />
<path d="M104.8958 107.4135
L104.9910 107.6040
" />
<path d="M104.9910 107.6040
L105.0862 107.6993
" />
<path d="M105.0862 107.6993
L105.2767 107.7945
" />
<path d="M105.2767 107.7945
L105.6577 107.7945
" />
<path d="M105.6577 107.7945
L105.8482 107.6993
" />
<path d="M105.8482 107.6993
L105.9434 107.6040
" />
<path d="M105.9434 107.6040
L106.0386 107.4135
" />
<path d="M106.0386 107.4135
L106.0386 107.0326
" />
<path d="M106.0386 107.0326
L105.9434 106.8421
" />
<path d="M105.9434 106.8421
L105.8482 106.7469
" />
<path d="M105.8482 106.7469
L105.6577 106.6516
" />
<path d="M107.2767 105.7945
L107.4672 105.7945
" />
<path d="M107.4672 105.7945
L107.6577 105.8897
" />
<path d="M107.6577 105.8897
L107.7529 105.9850
" />
<path d="M107.7529 105.9850
L107.8482 106.1755
" />
<path d="M107.8482 106.1755
L107.9434 106.5564
" />
<path d="M107.9434 106.5564
L107.9434 107.0326
" />
<path d="M107.9434 107.0326
L107.8482 107.4135
" />
<path d="M107.8482 107.4135
L107.7529 107.6040
" />
<path d="M107.7529 107.6040
L107.6577 107.6993
" />
<path d="M107.6577 107.6993
L107.4672 107.7945
" />
<path d="M107.4672 107.7945
L107.2767 107.7945
" />
<path d="M107.2767 107.7945
L107.0863 107.6993
" />
<path d="M107.0863 107.6993
L106.9910 107.6040
" />
<path d="M106.9910 107.6040
L106.8958 107.4135
" />
<path d="M106.8958 107.4135
L106.8005 107.0326
" />
<path d="M106.8005 107.0326
L106.8005 106.5564
" />
<path d="M106.8005 106.5564
L106.8958 106.1755
" />
<path d="M106.8958 106.1755
L106.9910 105.9850
" />
<path d="M106.9910 105.9850
L107.0863 105.8897
" />
<path d="M107.0863 105.8897
L107.2767 105.7945
" />
<path d="M109.1815 105.7945
L109.3720 105.7945
" />
<path d="M109.3720 105.7945
L109.5624 105.8897
" />
<path d="M109.5624 105.8897
L109.6577 105.9850
" />
<path d="M109.6577 105.9850
L109.7529 106.1755
" />
<path d="M109.7529 106.1755
L109.8482 106.5564
" />
<path d="M109.8482 106.5564
L109.8482 107.0326
" />
<path d="M109.8482 107.0326
L109.7529 107.4135
" />
<path d="M109.7529 107.4135
L109.6577 107.6040
" />
<path d="M109.6577 107.6040
L109.5624 107.6993
" />
<path d="M109.5624 107.6993
L109.3720 107.7945
" />
<path d="M109.3720 107.7945
L109.1815 107.7945
" />
<path d="M109.1815 107.7945
L108.9910 107.6993
" />
<path d="M108.9910 107.6993
L108.8958 107.6040
" />
<path d="M108.8958 107.6040
L108.8005 107.4135
" />
<path d="M108.8005 107.4135
L108.7053 107.0326
" />
<path d="M108.7053 107.0326
L108.7053 106.5564
" />
<path d="M108.7053 106.5564
L108.8005 106.1755
" />
<path d="M108.8005 106.1755
L108.8958 105.9850
" />
<path d="M108.8958 105.9850
L108.9910 105.8897
" />
<path d="M108.9910 105.8897
L109.1815 105.7945
" />
<path d="M110.7053 107.7945
L110.7053 106.4612
" />
<path d="M110.7053 106.6516
L110.8005 106.5564
" />
<path d="M110.8005 106.5564
L110.9910 106.4612
" />
<path d="M110.9910 106.4612
L111.2767 106.4612
" />
<path d="M111.2767 106.4612
L111.4672 106.5564
" />
<path d="M111.4672 106.5564
L111.5624 106.7469
" />
<path d="M111.5624 106.7469
L111.5624 107.7945
" />
<path d="M111.5624 106.7469
L111.6577 106.5564
" />
<path d="M111.6577 106.5564
L111.8482 106.4612
" />
<path d="M111.8482 106.4612
L112.1339 106.4612
" />
<path d="M112.1339 106.4612
L112.3243 106.5564
" />
<path d="M112.3243 106.5564
L112.4196 106.7469
" />
<path d="M112.4196 106.7469
L112.4196 107.7945
" />
<path d="M113.3720 107.7945
L113.3720 106.4612
" />
<path d="M113.3720 106.6516
L113.4672 106.5564
" />
<path d="M113.4672 106.5564
L113.6577 106.4612
" />
<path d="M113.6577 106.4612
L113.9434 106.4612
" />
<path d="M113.9434 106.4612
L114.1339 106.5564
" />
<path d="M114.1339 106.5564
L114.2291 106.7469
" />
<path d="M114.2291 106.7469
L114.2291 107.7945
" />
<path d="M114.2291 106.7469
L114.3243 106.5564
" />
<path d="M114.3243 106.5564
L114.5148 106.4612
" />
<path d="M114.5148 106.4612
L114.8005 106.4612
" />
<path d="M114.8005 106.4612
L114.9910 106.5564
" />
<path d="M114.9910 106.5564
L115.0863 106.7469
" />
<path d="M115.0863 106.7469
L115.0863 107.7945
" />
<path d="M118.9910 105.6993
L117.2767 108.2707
" />
<path d="M121.5624 105.7945
L121.7529 105.7945
" />
<path d="M121.7529 105.7945
L121.9434 105.8897
" />
<path d="M121.9434 105.8897
L122.0386 105.9850
" />
<path d="M122.0386 105.9850
L122.1339 106.1755
" />
<path d="M122.1339 106.1755
L122.2291 106.5564
" />
<path d="M122.2291 106.5564
L122.2291 107.0326
" />
<path d="M122.2291 107.0326
L122.1339 107.4135
" />
<path d="M122.1339 107.4135
L122.0386 107.6040
" />
<path d="M122.0386 107.6040
L121.9434 107.6993
" />
<path d="M121.9434 107.6993
L121.7529 107.7945
" />
<path d="M121.7529 107.7945
L121.5624 107.7945
" />
<path d="M121.5624 107.7945
L121.3720 107.6993
" />
<path d="M121.3720 107.6993
L121.2767 107.6040
" />
<path d="M121.2767 107.6040
L121.1815 107.4135
" />
<path d="M121.1815 107.4135
L121.0863 107.0326
" />
<path d="M121.0863 107.0326
L121.0863 106.5564
" />
<path d="M121.0863 106.5564
L121.1815 106.1755
" />
<path d="M121.1815 106.1755
L121.2767 105.9850
" />
<path d="M121.2767 105.9850
L121.3720 105.8897
" />
<path d="M121.3720 105.8897
L121.5624 105.7945
" />
<path d="M123.0863 107.6040
L123.1815 107.6993
" />
<path d="M123.1815 107.6993
L123.0863 107.7945
" />
<path d="M123.0863 107.7945
L122.9910 107.6993
" />
<path d="M122.9910 107.6993
L123.0863 107.6040
" />
<path d="M123.0863 107.6040
L123.0863 107.7945
" />
<path d="M124.4196 105.7945
L124.6101 105.7945
" />
<path d="M124.6101 105.7945
L124.8005 105.8897
" />
<path d="M124.8005 105.8897
L124.8958 105.9850
" />
<path d="M124.8958 105.9850
L124.9910 106.1755
" />
<path d="M124.9910 106.1755
L125.0863 106.5564
" />
<path d="M125.0863 106.5564
L125.0863 107.0326
" />
<path d="M125.0863 107.0326
L124.9910 107.4135
" />
<path d="M124.9910 107.4135
L124.8958 107.6040
" />
<path d="M124.8958 107.6040
L124.8005 107.6993
" />
<path d="M124.8005 107.6993
L124.6101 107.7945
" />
<path d="M124.6101 107.7945
L124.4196 107.7945
" />
<path d="M124.4196 107.7945
L124.2291 107.6993
" />
<path d="M124.2291 107.6993
L124.1339 107.6040
" />
<path d="M124.1339 107.6040
L124.0386 107.4135
" />
<path d="M124.0386 107.4135
L123.9434 107.0326
" />
<path d="M123.9434 107.0326
L123.9434 106.5564
" />
<path d="M123.9434 106.5564
L124.0386 106.1755
" />
<path d="M124.0386 106.1755
L124.1339 105.9850
" />
<path d="M124.1339 105.9850
L124.2291 105.8897
" />
<path d="M124.2291 105.8897
L124.4196 105.7945
" />
<path d="M125.7529 105.7945
L126.9910 105.7945
" />
<path d="M126.9910 105.7945
L126.3244 106.5564
" />
<path d="M126.3244 106.5564
L126.6101 106.5564
" />
<path d="M126.6101 106.5564
L126.8005 106.6516
" />
<path d="M126.8005 106.6516
L126.8958 106.7469
" />
<path d="M126.8958 106.7469
L126.9910 106.9374
" />
<path d="M126.9910 106.9374
L126.9910 107.4135
" />
<path d="M126.9910 107.4135
L126.8958 107.6040
" />
<path d="M126.8958 107.6040
L126.8005 107.6993
" />
<path d="M126.8005 107.6993
L126.6101 107.7945
" />
<path d="M126.6101 107.7945
L126.0386 107.7945
" />
<path d="M126.0386 107.7945
L125.8482 107.6993
" />
<path d="M125.8482 107.6993
L125.7529 107.6040
" />
<path d="M128.8958 107.7945
L127.7529 107.7945
" />
<path d="M128.3244 107.7945
L128.3244 105.7945
" />
<path d="M128.3244 105.7945
L128.1339 106.0802
" />
<path d="M128.1339 106.0802
L127.9434 106.2707
" />
<path d="M127.9434 106.2707
L127.7529 106.3659
" />
<path d="M130.7053 105.7945
L129.7529 105.7945
" />
<path d="M129.7529 105.7945
L129.6577 106.7469
" />
<path d="M129.6577 106.7469
L129.7529 106.6516
" />
<path d="M129.7529 106.6516
L129.9434 106.5564
" />
<path d="M129.9434 106.5564
L130.4196 106.5564
" />
<path d="M130.4196 106.5564
L130.6101 106.6516
" />
<path d="M130.6101 106.6516
L130.7053 106.7469
" />
<path d="M130.7053 106.7469
L130.8005 106.9374
" />
<path d="M130.8005 106.9374
L130.8005 107.4135
" />
<path d="M130.8005 107.4135
L130.7053 107.6040
" />
<path d="M130.7053 107.6040
L130.6101 107.6993
" />
<path d="M130.6101 107.6993
L130.4196 107.7945
" />
<path d="M130.4196 107.7945
L129.9434 107.7945
" />
<path d="M129.9434 107.7945
L129.7529 107.6993
" />
<path d="M129.7529 107.6993
L129.6577 107.6040
" />
<path d="M131.5625 105.7945
L131.5625 106.1755
" />
<path d="M132.3244 105.7945
L132.3244 106.1755
" />
<path d="M135.2767 108.5564
L135.1815 108.4612
" />
<path d="M135.1815 108.4612
L134.9910 108.1755
" />
<path d="M134.9910 108.1755
L134.8958 107.9850
" />
<path d="M134.8958 107.9850
L134.8006 107.6993
" />
<path d="M134.8006 107.6993
L134.7053 107.2231
" />
<path d="M134.7053 107.2231
L134.7053 106.8421
" />
<path d="M134.7053 106.8421
L134.8006 106.3659
" />
<path d="M134.8006 106.3659
L134.8958 106.0802
" />
<path d="M134.8958 106.0802
L134.9910 105.8897
" />
<path d="M134.9910 105.8897
L135.1815 105.6040
" />
<path d="M135.1815 105.6040
L135.2767 105.5088
" />
<path d="M136.8958 106.4612
L136.8958 107.7945
" />
<path d="M136.4196 105.6993
L135.9434 107.1278
" />
<path d="M135.9434 107.1278
L137.1815 107.1278
" />
<path d="M139.4672 107.7945
L139.4672 105.7945
" />
<path d="M140.3244 107.7945
L140.3244 106.7469
" />
<path d="M140.3244 106.7469
L140.2291 106.5564
" />
<path d="M140.2291 106.5564
L140.0386 106.4612
" />
<path d="M140.0386 106.4612
L139.7529 106.4612
" />
<path d="M139.7529 106.4612
L139.5625 106.5564
" />
<path d="M139.5625 106.5564
L139.4672 106.6516
" />
<path d="M141.5625 107.7945
L141.3720 107.6993
" />
<path d="M141.3720 107.6993
L141.2767 107.6040
" />
<path d="M141.2767 107.6040
L141.1815 107.4135
" />
<path d="M141.1815 107.4135
L141.1815 106.8421
" />
<path d="M141.1815 106.8421
L141.2767 106.6516
" />
<path d="M141.2767 106.6516
L141.3720 106.5564
" />
<path d="M141.3720 106.5564
L141.5625 106.4612
" />
<path d="M141.5625 106.4612
L141.8482 106.4612
" />
<path d="M141.8482 106.4612
L142.0387 106.5564
" />
<path d="M142.0387 106.5564
L142.1339 106.6516
" />
<path d="M142.1339 106.6516
L142.2291 106.8421
" />
<path d="M142.2291 106.8421
L142.2291 107.4135
" />
<path d="M142.2291 107.4135
L142.1339 107.6040
" />
<path d="M142.1339 107.6040
L142.0387 107.6993
" />
<path d="M142.0387 107.6993
L141.8482 107.7945
" />
<path d="M141.8482 107.7945
L141.5625 107.7945
" />
<path d="M143.3720 107.7945
L143.1815 107.6993
" />
<path d="M143.1815 107.6993
L143.0863 107.5088
" />
<path d="M143.0863 107.5088
L143.0863 105.7945
" />
<path d="M144.8958 107.6993
L144.7053 107.7945
" />
<path d="M144.7053 107.7945
L144.3244 107.7945
" />
<path d="M144.3244 107.7945
L144.1339 107.6993
" />
<path d="M144.1339 107.6993
L144.0387 107.5088
" />
<path d="M144.0387 107.5088
L144.0387 106.7469
" />
<path d="M144.0387 106.7469
L144.1339 106.5564
" />
<path d="M144.1339 106.5564
L144.3244 106.4612
" />
<path d="M144.3244 106.4612
L144.7053 106.4612
" />
<path d="M144.7053 106.4612
L144.8958 106.5564
" />
<path d="M144.8958 106.5564
L144.9910 106.7469
" />
<path d="M144.9910 106.7469
L144.9910 106.9374
" />
<path d="M144.9910 106.9374
L144.0387 107.1278
" />
<path d="M145.7529 107.6993
L145.9434 107.7945
" />
<path d="M145.9434 107.7945
L146.3244 107.7945
" />
<path d="M146.3244 107.7945
L146.5148 107.6993
" />
<path d="M146.5148 107.6993
L146.6101 107.5088
" />
<path d="M146.6101 107.5088
L146.6101 107.4135
" />
<path d="M146.6101 107.4135
L146.5148 107.2231
" />
<path d="M146.5148 107.2231
L146.3244 107.1278
" />
<path d="M146.3244 107.1278
L146.0387 107.1278
" />
<path d="M146.0387 107.1278
L145.8482 107.0326
" />
<path d="M145.8482 107.0326
L145.7529 106.8421
" />
<path d="M145.7529 106.8421
L145.7529 106.7469
" />
<path d="M145.7529 106.7469
L145.8482 106.5564
" />
<path d="M145.8482 106.5564
L146.0387 106.4612
" />
<path d="M146.0387 106.4612
L146.3244 106.4612
" />
<path d="M146.3244 106.4612
L146.5148 106.5564
" />
<path d="M147.2768 108.5564
L147.3720 108.4612
" />
<path d="M147.3720 108.4612
L147.5625 108.1755
" />
<path d="M147.5625 108.1755
L147.6577 107.9850
" />
<path d="M147.6577 107.9850
L147.7529 107.6993
" />
<path d="M147.7529 107.6993
L147.8482 107.2231
" />
<path d="M147.8482 107.2231
L147.8482 106.8421
" />
<path d="M147.8482 106.8421
L147.7529 106.3659
" />
<path d="M147.7529 106.3659
L147.6577 106.0802
" />
<path d="M147.6577 106.0802
L147.5625 105.8897
" />
<path d="M147.5625 105.8897
L147.3720 105.6040
" />
<path d="M147.3720 105.6040
L147.2768 105.5088
" />
</g></g>
<g style="fill:none; 
stroke:#000000; stroke-width:0.3000; stroke-opacity:1; 
stroke-linecap:round; stroke-linejoin:round;">
<path d="M98.5261 109.0797
L98.5261 111.0797
" />
<path d="M97.5261 110.0797
L99.5261 110.0797
" />
</g>
<g style="fill:none; 
stroke:#000000; stroke-width:0.2000; stroke-opacity:1; 
stroke-linecap:round; stroke-linejoin:round;">
<text x="101.5261" y="111.0797"
textLength="46.8667" font-size="2.6667" lengthAdjust="spacingAndGlyphs"
text-anchor="start" opacity="0" stroke-opacity="0">1.000mm / 0.0394" (8 holes)</text>
<g class="stroked-text"><desc>1.000mm / 0.0394" (8 holes)</desc>
<path d="M103.1815 110.9945
L102.0386 110.9945
" />
<path d="M102.6101 110.9945
L102.6101 108.9945
" />
<path d="M102.6101 108.9945
L102.4196 109.2802
" />
<path d="M102.4196 109.2802
L102.2291 109.4707
" />
<path d="M102.2291 109.4707
L102.0386 109.5659
" />
<path d="M104.0386 110.8040
L104.1339 110.8993
" />
<path d="M104.1339 110.8993
L104.0386 110.9945
" />
<path d="M104.0386 110.9945
L103.9434 110.8993
" />
<path d="M103.9434 110.8993
L104.0386 110.8040
" />
<path d="M104.0386 110.8040
L104.0386 110.9945
" />
<path d="M105.3720 108.9945
L105.5624 108.9945
" />
<path d="M105.5624 108.9945
L105.7529 109.0897
" />
<path d="M105.7529 109.0897
L105.8482 109.1850
" />
<path d="M105.8482 109.1850
L105.9434 109.3755
" />
<path d="M105.9434 109.3755
L106.0386 109.7564
" />
<path d="M106.0386 109.7564
L106.0386 110.2326
" />
<path d="M106.0386 110.2326
L105.9434 110.6135
" />
<path d="M105.9434 110.6135
L105.8482 110.8040
" />
<path d="M105.8482 110.8040
L105.7529 110.8993
" />
<path d="M105.7529 110.8993
L105.5624 110.9945
" />
<path d="M105.5624 110.9945
L105.3720 110.9945
" />
<path d="M105.3720 110.9945
L105.1815 110.8993
" />
<path d="M105.1815 110.8993
L105.0862 110.8040
" />
<path d="M105.0862 110.8040
L104.9910 110.6135
" />
<path d="M104.9910 110.6135
L104.8958 110.2326
" />
<path d="M104.8958 110.2326
L104.8958 109.7564
" />
<path d="M104.8958 109.7564
L104.9910 109.3755
" />
<path d="M104.9910 109.3755
L105.0862 109.1850
" />
<path d="M105.0862 109.1850
L105.1815 109.0897
" />
<path d="M105.1815 109.0897
L105.3720 108.9945
" />
<path d="M107.2767 108.9945
L107.4672 108.9945
" />
<path d="M107.4672 108.9945
L107.6577 109.0897
" />
<path d="M107.6577 109.0897
L107.7529 109.1850
" />
<path d="M107.7529 109.1850
L107.8482 109.3755
" />
<path d="M107.8482 109.3755
L107.9434 109.7564
" />
<path d="M107.9434 109.7564
L107.9434 110.2326
" />
<path d="M107.9434 110.2326
L107.8482 110.6135
" />
<path d="M107.8482 110.6135
L107.7529 110.8040
" />
<path d="M107.7529 110.8040
L107.6577 110.8993
" />
<path d="M107.6577 110.8993
L107.4672 110.9945
" />
<path d="M107.4672 110.9945
L107.2767 110.9945
" />
<path d="M107.2767 110.9945
L107.0863 110.8993
" />
<path d="M107.0863 110.8993
L106.9910 110.8040
" />
<path d="M106.9910 110.8040
L106.8958 110.6135
" />
<path d="M106.8958 110.6135
L106.8005 110.2326
" />
<path d="M106.8005 110.2326
L106.8005 109.7564
" />
<path d="M106.8005 109.7564
L106.8958 109.3755
" />
<path d="M106.8958 109.3755
L106.9910 109.1850
" />
<path d="M106.9910 109.1850
L107.0863 109.0897
" />
<path d="M107.0863 109.0897
L107.2767 108.9945
" />
<path d="M109.1815 108.9945
L109.3720 108.9945
" />
<path d="M109.3720 108.9945
L109.5624 109.0897
" />
<path d="M109.5624 109.0897
L109.6577 109.1850
" />
<path d="M109.6577 109.1850
L109.7529 109.3755
" />
<path d="M109.7529 109.3755
L109.8482 109.7564
" />
<path d="M109.8482 109.7564
L109.8482 110.2326
" />
<path d="M109.8482 110.2326
L109.7529 110.6135
" />
<path d="M109.7529 110.6135
L109.6577 110.8040
" />
<path d="M109.6577 110.8040
L109.5624 110.8993
" />
<path d="M109.5624 110.8993
L109.3720 110.9945
" />
<path d="M109.3720 110.9945
L109.1815 110.9945
" />
<path d="M109.1815 110.9945
L108.9910 110.8993
" />
<path d="M108.9910 110.8993
L108.8958 110.8040
" />
<path d="M108.8958 110.8040
L108.8005 110.6135
" />
<path d="M108.8005 110.6135
L108.7053 110.2326
" />
<path d="M108.7053 110.2326
L108.7053 109.7564
" />
<path d="M108.7053 109.7564
L108.8005 109.3755
" />
<path d="M108.8005 109.3755
L108.8958 109.1850
" />
<path d="M108.8958 109.1850
L108.9910 109.0897
" />
<path d="M108.9910 109.0897
L109.1815 108.9945
" />
<path d="M110.7053 110.9945
L110.7053 109.6612
" />
<path d="M110.7053 109.8516
L110.8005 109.7564
" />
<path d="M110.8005 109.7564
L110.9910 109.6612
" />
<path d="M110.9910 109.6612
L111.2767 109.6612
" />
<path d="M111.2767 109.6612
L111.4672 109.7564
" />
<path d="M111.4672 109.7564
L111.5624 109.9469
" />
<path d="M111.5624 109.9469
L111.5624 110.9945
" />
<path d="M111.5624 109.9469
L111.6577 109.7564
" />
<path d="M111.6577 109.7564
L111.8482 109.6612
" />
<path d="M111.8482 109.6612
L112.1339 109.6612
" />
<path d="M112.1339 109.6612
L112.3243 109.7564
" />
<path d="M112.3243 109.7564
L112.4196 109.9469
" />
<path d="M112.4196 109.9469
L112.4196 110.9945
" />
<path d="M113.3720 110.9945
L113.3720 109.6612
" />
<path d="M113.3720 109.8516
L113.4672 109.7564
" />
<path d="M113.4672 109.7564
L113.6577 109.6612
" />
<path d="M113.6577 109.6612
L113.9434 109.6612
" />
<path d="M113.9434 109.6612
L114.1339 109.7564
" />
<path d="M114.1339 109.7564
L114.2291 109.9469
" />
<path d="M114.2291 109.9469
L114.2291 110.9945
" />
<path d="M114.2291 109.9469
L114.3243 109.7564
" />
<path d="M114.3243 109.7564
L114.5148 109.6612
" />
<path d="M114.5148 109.6612
L114.8005 109.6612
" />
<path d="M114.8005 109.6612
L114.9910 109.7564
" />
<path d="M114.9910 109.7564
L115.0863 109.9469
" />
<path d="M115.0863 109.9469
L115.0863 110.9945
" />
<path d="M118.9910 108.8993
L117.2767 111.4707
" />
<path d="M121.5624 108.9945
L121.7529 108.9945
" />
<path d="M121.7529 108.9945
L121.9434 109.0897
" />
<path d="M121.9434 109.0897
L122.0386 109.1850
" />
<path d="M122.0386 109.1850
L122.1339 109.3755
" />
<path d="M122.1339 109.3755
L122.2291 109.7564
" />
<path d="M122.2291 109.7564
L122.2291 110.2326
" />
<path d="M122.2291 110.2326
L122.1339 110.6135
" />
<path d="M122.1339 110.6135
L122.0386 110.8040
" />
<path d="M122.0386 110.8040
L121.9434 110.8993
" />
<path d="M121.9434 110.8993
L121.7529 110.9945
" />
<path d="M121.7529 110.9945
L121.5624 110.9945
" />
<path d="M121.5624 110.9945
L121.3720 110.8993
" />
<path d="M121.3720 110.8993
L121.2767 110.8040
" />
<path d="M121.2767 110.8040
L121.1815 110.6135
" />
<path d="M121.1815 110.6135
L121.0863 110.2326
" />
<path d="M121.0863 110.2326
L121.0863 109.7564
" />
<path d="M121.0863 109.7564
L121.1815 109.3755
" />
<path d="M121.1815 109.3755
L121.2767 109.1850
" />
<path d="M121.2767 109.1850
L121.3720 109.0897
" />
<path d="M121.3720 109.0897
L121.5624 108.9945
" />
<path d="M123.0863 110.8040
L123.1815 110.8993
" />
<path d="M123.1815 110.8993
L123.0863 110.9945
" />
<path d="M123.0863 110.9945
L122.9910 110.8993
" />
<path d="M122.9910 110.8993
L123.0863 110.8040
" />
<path d="M123.0863 110.8040
L123.0863 110.9945
" />
<path d="M124.4196 108.9945
L124.6101 108.9945
" />
<path d="M124.6101 108.9945
L124.8005 109.0897
" />
<path d="M124.8005 109.0897
L124.8958 109.1850
" />
<path d="M124.8958 109.1850
L124.9910 109.3755
" />
<path d="M124.9910 109.3755
L125.0863 109.7564
" />
<path d="M125.0863 109.7564
L125.0863 110.2326
" />
<path d="M125.0863 110.2326
L124.9910 110.6135
" />
<path d="M124.9910 110.6135
L124.8958 110.8040
" />
<path d="M124.8958 110.8040
L124.8005 110.8993
" />
<path d="M124.8005 110.8993
L124.6101 110.9945
" />
<path d="M124.6101 110.9945
L124.4196 110.9945
" />
<path d="M124.4196 110.9945
L124.2291 110.8993
" />
<path d="M124.2291 110.8993
L124.1339 110.8040
" />
<path d="M124.1339 110.8040
L124.0386 110.6135
" />
<path d="M124.0386 110.6135
L123.9434 110.2326
" />
<path d="M123.9434 110.2326
L123.9434 109.7564
" />
<path d="M123.9434 109.7564
L124.0386 109.3755
" />
<path d="M124.0386 109.3755
L124.1339 109.1850
" />
<path d="M124.1339 109.1850
L124.2291 109.0897
" />
<path d="M124.2291 109.0897
L124.4196 108.9945
" />
<path d="M125.7529 108.9945
L126.9910 108.9945
" />
<path d="M126.9910 108.9945
L126.3244 109.7564
" />
<path d="M126.3244 109.7564
L126.6101 109.7564
" />
<path d="M126.6101 109.7564
L126.8005 109.8516
" />
<path d="M126.8005 109.8516
L126.8958 109.9469
" />
<path d="M126.8958 109.9469
L126.9910 110.1374
" />
<path d="M126.9910 110.1374
L126.9910 110.6135
" />
<path d="M126.9910 110.6135
L126.8958 110.8040
" />
<path d="M126.8958 110.8040
L126.8005 110.8993
" />
<path d="M126.8005 110.8993
L126.6101 110.9945
" />
<path d="M126.6101 110.9945
L126.0386 110.9945
" />
<path d="M126.0386 110.9945
L125.8482 110.8993
" />
<path d="M125.8482 110.8993
L125.7529 110.8040
" />
<path d="M127.9434 110.9945
L128.3244 110.9945
" />
<path d="M128.3244 110.9945
L128.5148 110.8993
" />
<path d="M128.5148 110.8993
L128.6101 110.8040
" />
<path d="M128.6101 110.8040
L128.8005 110.5183
" />
<path d="M128.8005 110.5183
L128.8958 110.1374
" />
<path d="M128.8958 110.1374
L128.8958 109.3755
" />
<path d="M128.8958 109.3755
L128.8005 109.1850
" />
<path d="M128.8005 109.1850
L128.7053 109.0897
" />
<path d="M128.7053 109.0897
L128.5148 108.9945
" />
<path d="M128.5148 108.9945
L128.1339 108.9945
" />
<path d="M128.1339 108.9945
L127.9434 109.0897
" />
<path d="M127.9434 109.0897
L127.8482 109.1850
" />
<path d="M127.8482 109.1850
L127.7529 109.3755
" />
<path d="M127.7529 109.3755
L127.7529 109.8516
" />
<path d="M127.7529 109.8516
L127.8482 110.0421
" />
<path d="M127.8482 110.0421
L127.9434 110.1374
" />
<path d="M127.9434 110.1374
L128.1339 110.2326
" />
<path d="M128.1339 110.2326
L128.5148 110.2326
" />
<path d="M128.5148 110.2326
L128.7053 110.1374
" />
<path d="M128.7053 110.1374
L128.8005 110.0421
" />
<path d="M128.8005 110.0421
L128.8958 109.8516
" />
<path d="M130.6101 109.6612
L130.6101 110.9945
" />
<path d="M130.1339 108.8993
L129.6577 110.3278
" />
<path d="M129.6577 110.3278
L130.8958 110.3278
" />
<path d="M131.5625 108.9945
L131.5625 109.3755
" />
<path d="M132.3244 108.9945
L132.3244 109.3755
" />
<path d="M135.2767 111.7564
L135.1815 111.6612
" />
<path d="M135.1815 111.6612
L134.9910 111.3755
" />
<path d="M134.9910 111.3755
L134.8958 111.1850
" />
<path d="M134.8958 111.1850
L134.8006 110.8993
" />
<path d="M134.8006 110.8993
L134.7053 110.4231
" />
<path d="M134.7053 110.4231
L134.7053 110.0421
" />
<path d="M134.7053 110.0421
L134.8006 109.5659
" />
<path d="M134.8006 109.5659
L134.8958 109.2802
" />
<path d="M134.8958 109.2802
L134.9910 109.0897
" />
<path d="M134.9910 109.0897
L135.1815 108.8040
" />
<path d="M135.1815 108.8040
L135.2767 108.7088
" />
<path d="M136.3244 109.8516
L136.1339 109.7564
" />
<path d="M136.1339 109.7564
L136.0386 109.6612
" />
<path d="M136.0386 109.6612
L135.9434 109.4707
" />
<path d="M135.9434 109.4707
L135.9434 109.3755
" />
<path d="M135.9434 109.3755
L136.0386 109.1850
" />
<path d="M136.0386 109.1850
L136.1339 109.0897
" />
<path d="M136.1339 109.0897
L136.3244 108.9945
" />
<path d="M136.3244 108.9945
L136.7053 108.9945
" />
<path d="M136.7053 108.9945
L136.8958 109.0897
" />
<path d="M136.8958 109.0897
L136.9910 109.1850
" />
<path d="M136.9910 109.1850
L137.0863 109.3755
" />
<path d="M137.0863 109.3755
L137.0863 109.4707
" />
<path d="M137.0863 109.4707
L136.9910 109.6612
" />
<path d="M136.9910 109.6612
L136.8958 109.7564
" />
<path d="M136.8958 109.7564
L136.7053 109.8516
" />
<path d="M136.7053 109.8516
L136.3244 109.8516
" />
<path d="M136.3244 109.8516
L136.1339 109.9469
" />
<path d="M136.1339 109.9469
L136.0386 110.0421
" />
<path d="M136.0386 110.0421
L135.9434 110.2326
" />
<path d="M135.9434 110.2326
L135.9434 110.6135
" />
<path d="M135.9434 110.6135
L136.0386 110.8040
" />
<path d="M136.0386 110.8040
L136.1339 110.8993
" />
<path d="M136.1339 110.8993
L136.3244 110.9945
" />
<path d="M136.3244 110.9945
L136.7053 110.9945
" />
<path d="M136.7053 110.9945
L136.8958 110.8993
" />
<path d="M136.8958 110.8993
L136.9910 110.8040
" />
<path d="M136.9910 110.8040
L137.0863 110.6135
" />
<path d="M137.0863 110.6135
L137.0863 110.2326
" />
<path d="M137.0863 110.2326
L136.9910 110.0421
" />
<path d="M136.9910 110.0421
L136.8958 109.9469
" />
<path d="M136.8958 109.9469
L136.7053 109.8516
" />
<path d="M139.4672 110.9945
L139.4672 108.9945
" />
<path d="M140.3244 110.9945
L140.3244 109.9469
" />
<path d="M140.3244 109.9469
L140.2291 109.7564
" />
<path d="M140.2291 109.7564
L140.0386 109.6612
" />
<path d="M140.0386 109.6612
L139.7529 109.6612
" />
<path d="M139.7529 109.6612
L139.5625 109.7564
" />
<path d="M139.5625 109.7564
L139.4672 109.8516
" />
<path d="M141.5625 110.9945
L141.3720 110.8993
" />
<path d="M141.3720 110.8993
L141.2767 110.8040
" />
<path d="M141.2767 110.8040
L141.1815 110.6135
" />
<path d="M141.1815 110.6135
L141.1815 110.0421
" />
<path d="M141.1815 110.0421
L141.2767 109.8516
" />
<path d="M141.2767 109.8516
L141.3720 109.7564
" />
<path d="M141.3720 109.7564
L141.5625 109.6612
" />
<path d="M141.5625 109.6612
L141.8482 109.6612
" />
<path d="M141.8482 109.6612
L142.0387 109.7564
" />
<path d="M142.0387 109.7564
L142.1339 109.8516
" />
<path d="M142.1339 109.8516
L142.2291 110.0421
" />
<path d="M142.2291 110.0421
L142.2291 110.6135
" />
<path d="M142.2291 110.6135
L142.1339 110.8040
" />
<path d="M142.1339 110.8040
L142.0387 110.8993
" />
<path d="M142.0387 110.8993
L141.8482 110.9945
" />
<path d="M141.8482 110.9945
L141.5625 110.9945
" />
<path d="M143.3720 110.9945
L143.1815 110.8993
" />
<path d="M143.1815 110.8993
L143.0863 110.7088
" />
<path d="M143.0863 110.7088
L143.0863 108.9945
" />
<path d="M144.8958 110.8993
L144.7053 110.9945
" />
<path d="M144.7053 110.9945
L144.3244 110.9945
" />
<path d="M144.3244 110.9945
L144.1339 110.8993
" />
<path d="M144.1339 110.8993
L144.0387 110.7088
" />
<path d="M144.0387 110.7088
L144.0387 109.9469
" />
<path d="M144.0387 109.9469
L144.1339 109.7564
" />
<path d="M144.1339 109.7564
L144.3244 109.6612
" />
<path d="M144.3244 109.6612
L144.7053 109.6612
" />
<path d="M144.7053 109.6612
L144.8958 109.7564
" />
<path d="M144.8958 109.7564
L144.9910 109.9469
" />
<path d="M144.9910 109.9469
L144.9910 110.1374
" />
<path d="M144.9910 110.1374
L144.0387 110.3278
" />
<path d="M145.7529 110.8993
L145.9434 110.9945
" />
<path d="M145.9434 110.9945
L146.3244 110.9945
" />
<path d="M146.3244 110.9945
L146.5148 110.8993
" />
<path d="M146.5148 110.8993
L146.6101 110.7088
" />
<path d="M146.6101 110.7088
L146.6101 110.6135
" />
<path d="M146.6101 110.6135
L146.5148 110.4231
" />
<path d="M146.5148 110.4231
L146.3244 110.3278
" />
<path d="M146.3244 110.3278
L146.0387 110.3278
" />
<path d="M146.0387 110.3278
L145.8482 110.2326
" />
<path d="M145.8482 110.2326
L145.7529 110.0421
" />
<path d="M145.7529 110.0421
L145.7529 109.9469
" />
<path d="M145.7529 109.9469
L145.8482 109.7564
" />
<path d="M145.8482 109.7564
L146.0387 109.6612
" />
<path d="M146.0387 109.6612
L146.3244 109.6612
" />
<path d="M146.3244 109.6612
L146.5148 109.7564
" />
<path d="M147.2768 111.7564
L147.3720 111.6612
" />
<path d="M147.3720 111.6612
L147.5625 111.3755
" />
<path d="M147.5625 111.3755
L147.6577 111.1850
" />
<path d="M147.6577 111.1850
L147.7529 110.8993
" />
<path d="M147.7529 110.8993
L147.8482 110.4231
" />
<path d="M147.8482 110.4231
L147.8482 110.0421
" />
<path d="M147.8482 110.0421
L147.7529 109.5659
" />
<path d="M147.7529 109.5659
L147.6577 109.2802
" />
<path d="M147.6577 109.2802
L147.5625 109.0897
" />
<path d="M147.5625 109.0897
L147.3720 108.8040
" />
<path d="M147.3720 108.8040
L147.2768 108.7088
" />
</g></g> 
</svg>
