<?xml version="1.0" standalone="no"?>
 <!DOCTYPE svg PUBLIC "-//W3C//DTD SVG 1.1//EN" 
 "http://www.w3.org/Graphics/SVG/1.1/DTD/svg11.dtd"> 
<svg
  xmlns:svg="http://www.w3.org/2000/svg"
  xmlns="http://www.w3.org/2000/svg"
  xmlns:xlink="http://www.w3.org/1999/xlink"
  version="1.1"
  width="297.0022mm" height="210.0072mm" viewBox="0.0000 0.0000 297.0022 210.0072">
<title>SVG Image created as EggPCB-F_Cu.svg date 2025/07/01 08:21:22 </title>
  <desc>Image generated by PCBNEW </desc>
<g style="fill:#000000; fill-opacity:1.0000;stroke:#000000; stroke-opacity:1.0000;
stroke-linecap:round; stroke-linejoin:round;"
 transform="translate(0 0) scale(1 1)">
<path style="fill:#000000; fill-opacity:1.0000; stroke:none;fill-rule:evenodd;"
d="M 112.7925,118.5975
112.7016,118.5794
112.6246,118.5279
112.5731,118.4509
112.5550,118.3600
112.5550,117.8600
112.5731,117.7691
112.6246,117.6921
112.7016,117.6406
112.7925,117.6225
113.2675,117.6225
113.3584,117.6406
113.4354,117.6921
113.4869,117.7691
113.5050,117.8600
113.5050,118.3600
113.4869,118.4509
113.4354,118.5279
113.3584,118.5794
113.2675,118.5975
Z" /> 
<path style="fill:#000000; fill-opacity:1.0000; stroke:none;fill-rule:evenodd;"
d="M 112.7925,116.7725
112.7016,116.7544
112.6246,116.7029
112.5731,116.6259
112.5550,116.5350
112.5550,116.0350
112.5731,115.9441
112.6246,115.8671
112.7016,115.8156
112.7925,115.7975
113.2675,115.7975
113.3584,115.8156
113.4354,115.8671
113.4869,115.9441
113.5050,116.0350
113.5050,116.5350
113.4869,116.6259
113.4354,116.7029
113.3584,116.7544
113.2675,116.7725
Z" /> 
<path style="fill:#000000; fill-opacity:1.0000; stroke:none;fill-rule:evenodd;"
d="M 119.6175,106.1925
119.7084,106.2106
119.7854,106.2621
119.8369,106.3391
119.8550,106.4300
119.8550,106.9300
119.8369,107.0209
119.7854,107.0979
119.7084,107.1494
119.6175,107.1675
119.1425,107.1675
119.0516,107.1494
118.9746,107.0979
118.9231,107.0209
118.9050,106.9300
118.9050,106.4300
118.9231,106.3391
118.9746,106.2621
119.0516,106.2106
119.1425,106.1925
Z" /> 
<path style="fill:#000000; fill-opacity:1.0000; stroke:none;fill-rule:evenodd;"
d="M 119.6175,108.0175
119.7084,108.0356
119.7854,108.0871
119.8369,108.1641
119.8550,108.2550
119.8550,108.7550
119.8369,108.8459
119.7854,108.9229
119.7084,108.9744
119.6175,108.9925
119.1425,108.9925
119.0516,108.9744
118.9746,108.9229
118.9231,108.8459
118.9050,108.7550
118.9050,108.2550
118.9231,108.1641
118.9746,108.0871
119.0516,108.0356
119.1425,108.0175
Z" /> 
<path style="fill:#000000; fill-opacity:1.0000; stroke:none;fill-rule:evenodd;"
d="M 112.1800,119.8000
113.8800,119.8000
113.8800,121.5000
112.1800,121.5000
Z" /> 
</g>
<g style="fill:#000000; fill-opacity:1.0000; stroke:none;">
<circle cx="110.4900" cy="120.6500" r="0.8500" /> 
<path style="fill:#000000; fill-opacity:1.0000; stroke:none;fill-rule:evenodd;"
d="M 114.7200,101.1800
114.7200,99.4800
116.4200,99.4800
116.4200,101.1800
Z" /> 
<path style="fill:#000000; fill-opacity:1.0000; stroke:none;fill-rule:evenodd;"
d="M 105.8300,121.5000
105.8300,119.8000
107.5300,119.8000
107.5300,121.5000
Z" /> 
<path style="fill:#000000; fill-opacity:1.0000; stroke:none;fill-rule:evenodd;"
d="M 102.0200,116.4200
102.0200,114.7200
103.7200,114.7200
103.7200,116.4200
Z" /> 
<path style="fill:#000000; fill-opacity:1.0000; stroke:none;fill-rule:evenodd;"
d="M 115.9900,121.5000
115.9900,119.8000
117.6900,119.8000
117.6900,121.5000
Z" /> 
<path style="fill:#000000; fill-opacity:1.0000; stroke:none;fill-rule:evenodd;"
d="M 110.9100,101.1800
110.9100,99.4800
112.6100,99.4800
112.6100,101.1800
Z" /> 
<path style="fill:#000000; fill-opacity:1.0000; stroke:none;fill-rule:evenodd;"
d="M 117.0125,113.4875
116.9216,113.4694
116.8446,113.4179
116.7931,113.3409
116.7750,113.2500
116.7750,112.7500
116.7931,112.6591
116.8446,112.5821
116.9216,112.5306
117.0125,112.5125
117.4875,112.5125
117.5784,112.5306
117.6554,112.5821
117.7069,112.6591
117.7250,112.7500
117.7250,113.2500
117.7069,113.3409
117.6554,113.4179
117.5784,113.4694
117.4875,113.4875
Z" /> 
<path style="fill:#000000; fill-opacity:1.0000; stroke:none;fill-rule:evenodd;"
d="M 117.0125,111.6625
116.9216,111.6444
116.8446,111.5929
116.7931,111.5159
116.7750,111.4250
116.7750,110.9250
116.7931,110.8341
116.8446,110.7571
116.9216,110.7056
117.0125,110.6875
117.4875,110.6875
117.5784,110.7056
117.6554,110.7571
117.7069,110.8341
117.7250,110.9250
117.7250,111.4250
117.7069,111.5159
117.6554,111.5929
117.5784,111.6444
117.4875,111.6625
Z" /> 
<path style="fill:#000000; fill-opacity:1.0000; stroke:none;fill-rule:evenodd;"
d="M 111.9875,112.7925
112.0056,112.7016
112.0571,112.6246
112.1341,112.5731
112.2250,112.5550
112.7250,112.5550
112.8159,112.5731
112.8929,112.6246
112.9444,112.7016
112.9625,112.7925
112.9625,113.2675
112.9444,113.3584
112.8929,113.4354
112.8159,113.4869
112.7250,113.5050
112.2250,113.5050
112.1341,113.4869
112.0571,113.4354
112.0056,113.3584
111.9875,113.2675
Z" /> 
<path style="fill:#000000; fill-opacity:1.0000; stroke:none;fill-rule:evenodd;"
d="M 113.8125,112.7925
113.8306,112.7016
113.8821,112.6246
113.9591,112.5731
114.0500,112.5550
114.5500,112.5550
114.6409,112.5731
114.7179,112.6246
114.7694,112.7016
114.7875,112.7925
114.7875,113.2675
114.7694,113.3584
114.7179,113.4354
114.6409,113.4869
114.5500,113.5050
114.0500,113.5050
113.9591,113.4869
113.8821,113.4354
113.8306,113.3584
113.8125,113.2675
Z" /> 
<path style="fill:#000000; fill-opacity:1.0000; stroke:none;fill-rule:evenodd;"
d="M 106.4875,112.8125
106.3966,112.7944
106.3196,112.7429
106.2681,112.6659
106.2500,112.5750
106.2500,112.0750
106.2681,111.9841
106.3196,111.9071
106.3966,111.8556
106.4875,111.8375
106.9625,111.8375
107.0534,111.8556
107.1304,111.9071
107.1819,111.9841
107.2000,112.0750
107.2000,112.5750
107.1819,112.6659
107.1304,112.7429
107.0534,112.7944
106.9625,112.8125
Z" /> 
<path style="fill:#000000; fill-opacity:1.0000; stroke:none;fill-rule:evenodd;"
d="M 106.4875,110.9875
106.3966,110.9694
106.3196,110.9179
106.2681,110.8409
106.2500,110.7500
106.2500,110.2500
106.2681,110.1591
106.3196,110.0821
106.3966,110.0306
106.4875,110.0125
106.9625,110.0125
107.0534,110.0306
107.1304,110.0821
107.1819,110.1591
107.2000,110.2500
107.2000,110.7500
107.1819,110.8409
107.1304,110.9179
107.0534,110.9694
106.9625,110.9875
Z" /> 
<path style="fill:#000000; fill-opacity:1.0000; stroke:none;fill-rule:evenodd;"
d="M 110.2625,115.2125
110.3534,115.2306
110.4304,115.2821
110.4819,115.3591
110.5000,115.4500
110.5000,115.9500
110.4819,116.0409
110.4304,116.1179
110.3534,116.1694
110.2625,116.1875
109.7875,116.1875
109.6966,116.1694
109.6196,116.1179
109.5681,116.0409
109.5500,115.9500
109.5500,115.4500
109.5681,115.3591
109.6196,115.2821
109.6966,115.2306
109.7875,115.2125
Z" /> 
<path style="fill:#000000; fill-opacity:1.0000; stroke:none;fill-rule:evenodd;"
d="M 110.2625,117.0375
110.3534,117.0556
110.4304,117.1071
110.4819,117.1841
110.5000,117.2750
110.5000,117.7750
110.4819,117.8659
110.4304,117.9429
110.3534,117.9944
110.2625,118.0125
109.7875,118.0125
109.6966,117.9944
109.6196,117.9429
109.5681,117.8659
109.5500,117.7750
109.5500,117.2750
109.5681,117.1841
109.6196,117.1071
109.6966,117.0556
109.7875,117.0375
Z" /> 
<path style="fill:#000000; fill-opacity:1.0000; stroke:none;fill-rule:evenodd;"
d="M 116.1875,116.5125
116.2056,116.4216
116.2571,116.3446
116.3341,116.2931
116.4250,116.2750
116.9250,116.2750
117.0159,116.2931
117.0929,116.3446
117.1444,116.4216
117.1625,116.5125
117.1625,116.9875
117.1444,117.0784
117.0929,117.1554
117.0159,117.2069
116.9250,117.2250
116.4250,117.2250
116.3341,117.2069
116.2571,117.1554
116.2056,117.0784
116.1875,116.9875
Z" /> 
<path style="fill:#000000; fill-opacity:1.0000; stroke:none;fill-rule:evenodd;"
d="M 118.0125,116.5125
118.0306,116.4216
118.0821,116.3446
118.1591,116.2931
118.2500,116.2750
118.7500,116.2750
118.8409,116.2931
118.9179,116.3446
118.9694,116.4216
118.9875,116.5125
118.9875,116.9875
118.9694,117.0784
118.9179,117.1554
118.8409,117.2069
118.7500,117.2250
118.2500,117.2250
118.1591,117.2069
118.0821,117.1554
118.0306,117.0784
118.0125,116.9875
Z" /> 
<path style="fill:#000000; fill-opacity:1.0000; stroke:none;fill-rule:evenodd;"
d="M 119.8000,112.6100
119.8000,110.9100
121.5000,110.9100
121.5000,112.6100
Z" /> 
<path style="fill:#000000; fill-opacity:1.0000; stroke:none;fill-rule:evenodd;"
d="M 115.8075,102.7400
115.8984,102.7581
115.9754,102.8096
116.0269,102.8866
116.0450,102.9775
116.0450,103.4775
116.0269,103.5684
115.9754,103.6454
115.8984,103.6969
115.8075,103.7150
115.3325,103.7150
115.2416,103.6969
115.1646,103.6454
115.1131,103.5684
115.0950,103.4775
115.0950,102.9775
115.1131,102.8866
115.1646,102.8096
115.2416,102.7581
115.3325,102.7400
Z" /> 
<path style="fill:#000000; fill-opacity:1.0000; stroke:none;fill-rule:evenodd;"
d="M 115.8075,104.5650
115.8984,104.5831
115.9754,104.6346
116.0269,104.7116
116.0450,104.8025
116.0450,105.3025
116.0269,105.3934
115.9754,105.4704
115.8984,105.5219
115.8075,105.5400
115.3325,105.5400
115.2416,105.5219
115.1646,105.4704
115.1131,105.3934
115.0950,105.3025
115.0950,104.8025
115.1131,104.7116
115.1646,104.6346
115.2416,104.5831
115.3325,104.5650
Z" /> 
<path style="fill:#000000; fill-opacity:1.0000; stroke:none;fill-rule:evenodd;"
d="M 107.1000,99.4800
108.8000,99.4800
108.8000,101.1800
107.1000,101.1800
Z" /> 
</g>
<g style="fill:#000000; fill-opacity:1.0000; stroke:none;">
<circle cx="105.4100" cy="100.3300" r="0.8500" /> 
</g>
<g style="fill:none; 
stroke:#000000; stroke-width:0.8000; stroke-opacity:1; 
stroke-linecap:round; stroke-linejoin:round;">
<path d="M106.7250 112.3250
L104.2500 112.3250
" />
<path d="M104.2500 112.3250
L104.2500 102.7997
" />
<path d="M104.2500 102.7997
L105.4100 101.6397
" />
<path d="M105.4100 101.6397
L105.4100 100.3300
" />
<path d="M117.2500 111.1750
L120.0650 111.1750
" />
<path d="M120.0650 111.1750
L120.6500 111.7600
" />
<path d="M118.5000 116.7500
L118.5000 114.2500
" />
<path d="M118.5000 114.2500
L117.2500 113.0000
" />
<path d="M116.6750 116.7500
L116.2500 116.7500
" />
<path d="M116.2500 116.7500
L114.3000 114.8000
" />
<path d="M114.3000 114.8000
L114.3000 113.0300
" />
<path d="M116.8400 120.6500
L116.8400 116.9150
" />
<path d="M116.8400 116.9150
L116.6750 116.7500
" />
<path d="M106.7250 110.5000
L110.0250 110.5000
" />
<path d="M110.0250 110.5000
L110.0250 115.7000
" />
<path d="M106.6800 120.6500
L106.6800 112.3700
" />
<path d="M106.6800 112.3700
L106.7250 112.3250
" />
<path d="M111.7600 107.8850
L111.7600 100.3300
" />
<path d="M114.3000 110.4250
L111.7600 107.8850
" />
<path d="M114.3000 113.0300
L114.3000 110.4250
" />
<path d="M115.5700 100.3300
L115.5700 103.2275
" />
<path d="M110.0250 120.1850
L110.4900 120.6500
" />
<path d="M120.6500 111.7600
L120.6500 108.5050
" />
<path d="M110.0250 117.5250
L110.0250 120.1850
" />
<path d="M120.6500 108.5050
L119.3800 108.5050
" />
<path d="M113.0300 120.6500
L113.0300 118.1100
" />
<path d="M112.4750 115.7300
L112.4750 113.0300
" />
<path d="M113.0300 116.2850
L112.4750 115.7300
" />
<path d="M119.3800 105.0525
L119.3800 106.6800
" />
<path d="M115.5700 105.0525
L119.3800 105.0525
" />
</g> 
</svg>
