<?xml version="1.0" standalone="no"?>
 <!DOCTYPE svg PUBLIC "-//W3C//DTD SVG 1.1//EN" 
 "http://www.w3.org/Graphics/SVG/1.1/DTD/svg11.dtd"> 
<svg
  xmlns:svg="http://www.w3.org/2000/svg"
  xmlns="http://www.w3.org/2000/svg"
  xmlns:xlink="http://www.w3.org/1999/xlink"
  version="1.1"
  width="297.0022mm" height="210.0072mm" viewBox="0.0000 0.0000 297.0022 210.0072">
<title>SVG Image created as EggPCB-B_Cu.svg date 2025/07/02 10:19:58 </title>
  <desc>Image generated by PCBNEW </desc>
<g style="fill:#000000; fill-opacity:1.0000;stroke:#000000; stroke-opacity:1.0000;
stroke-linecap:round; stroke-linejoin:round;"
 transform="translate(0 0) scale(1 1)">
</g>
<g style="fill:#000000; fill-opacity:1.0000; stroke:none;">
<circle cx="115.3100" cy="112.7500" r="1.2500" /> 
</g>
<g style="fill:#000000; fill-opacity:1.0000; stroke:none;">
<circle cx="107.6900" cy="112.7500" r="1.2500" /> 
</g>
<g style="fill:#000000; fill-opacity:1.0000; stroke:none;">
<circle cx="107.6900" cy="108.2500" r="1.2500" /> 
</g>
<g style="fill:#000000; fill-opacity:1.0000; stroke:none;">
<circle cx="115.3100" cy="108.2500" r="1.2500" /> 
<path style="fill:#000000; fill-opacity:1.0000; stroke:none;fill-rule:evenodd;"
d="M 101.6200,116.8200
101.6200,114.3200
104.1200,114.3200
104.1200,116.8200
Z" /> 
<path style="fill:#000000; fill-opacity:1.0000; stroke:none;fill-rule:evenodd;"
d="M 110.5100,101.5800
110.5100,99.0800
113.0100,99.0800
113.0100,101.5800
Z" /> 
<path style="fill:#000000; fill-opacity:1.0000; stroke:none;fill-rule:evenodd;"
d="M 105.4300,121.9000
105.4300,119.4000
107.9300,119.4000
107.9300,121.9000
Z" /> 
<path style="fill:#000000; fill-opacity:1.0000; stroke:none;fill-rule:evenodd;"
d="M 114.3200,101.5800
114.3200,99.0800
116.8200,99.0800
116.8200,101.5800
Z" /> 
<path style="fill:#000000; fill-opacity:1.0000; stroke:none;fill-rule:evenodd;"
d="M 115.5900,121.9000
115.5900,119.4000
118.0900,119.4000
118.0900,121.9000
Z" /> 
<path style="fill:#000000; fill-opacity:1.0000; stroke:none;fill-rule:evenodd;"
d="M 112.9800,120.6000
113.0800,120.6000
113.0800,120.7000
112.9800,120.7000
Z" /> 
</g>
<g style="fill:#000000; fill-opacity:1.0000; stroke:none;">
<circle cx="110.4900" cy="120.6500" r="1.2500" /> 
</g>
<g style="fill:none; 
stroke:#000000; stroke-width:1.7000; stroke-opacity:1; 
stroke-linecap:round; stroke-linejoin:round;">
<path d="M107.9500 99.6800
L107.9500 100.9800
" />
<path d="M105.4100 99.6800
L105.4100 100.9800
" />
<path style="fill:#000000; fill-opacity:1.0000; stroke:none;fill-rule:evenodd;"
d="M 98.2850,110.6200
98.2740,110.7220
98.2263,110.8500
98.1444,110.9594
98.0350,111.0413
97.9070,111.0890
97.8050,111.1000
95.5650,111.1000
95.4630,111.0890
95.3350,111.0413
95.2256,110.9594
95.1437,110.8500
95.0960,110.7220
95.0850,110.6200
95.0850,107.3800
95.0960,107.2780
95.1437,107.1500
95.2256,107.0406
95.3350,106.9587
95.4630,106.9110
95.5650,106.9000
97.8050,106.9000
97.9070,106.9110
98.0350,106.9587
98.1444,107.0406
98.2263,107.1500
98.2740,107.2780
98.2850,107.3800
Z" /> 
<path style="fill:#000000; fill-opacity:1.0000; stroke:none;fill-rule:evenodd;"
d="M 127.5850,110.6200
127.5740,110.7220
127.5263,110.8500
127.4444,110.9594
127.3350,111.0413
127.2070,111.0890
127.1050,111.1000
124.8650,111.1000
124.7630,111.0890
124.6350,111.0413
124.5256,110.9594
124.4437,110.8500
124.3960,110.7220
124.3850,110.6200
124.3850,107.3800
124.3960,107.2780
124.4437,107.1500
124.5256,107.0406
124.6350,106.9587
124.7630,106.9110
124.8650,106.9000
127.1050,106.9000
127.2070,106.9110
127.3350,106.9587
127.4444,107.0406
127.5263,107.1500
127.5740,107.2780
127.5850,107.3800
Z" /> 
</g>
<g style="fill:none; 
stroke:#000000; stroke-width:0.8000; stroke-opacity:1; 
stroke-linecap:round; stroke-linejoin:round;">
<path d="M125.9850 109.0000
L116.0600 109.0000
" />
<path d="M116.0600 109.0000
L115.3100 108.2500
" />
<path d="M115.8000 109.0000
L115.0000 108.2000
" />
<path d="M102.8700 115.5700
L102.8700 115.1850
" />
<path d="M102.8700 115.1850
L96.6850 109.0000
" />
<path d="M102.8700 115.5700
L111.7600 115.5700
" />
<path d="M111.7600 100.3300
L111.7600 115.5700
" />
<path d="M111.7600 115.5700
L116.8400 120.6500
" />
</g> 
</svg>
